<?xml version="1.0" encoding="utf-8"?>
<!-- Generator: Adobe Illustrator 24.1.1, SVG Export Plug-In . SVG Version: 6.00 Build 0)  -->
<svg version="1.1" id="Layer_1" xmlns="http://www.w3.org/2000/svg" xmlns:xlink="http://www.w3.org/1999/xlink" x="0px" y="0px"
	 viewBox="0 0 750 500" style="enable-background:new 0 0 750 500;" xml:space="preserve" preserveAspectRatio="xMidYMid slice">
<style type="text/css">
	.st0{clip-path:url(#SVGID_2_);}
	.st1{display:none;fill:none;stroke:#777777;stroke-width:3;}
	.st2{fill:none;stroke:#FFFFFF;stroke-width:1.5;}
	.st3{display:none;fill:none;stroke:#777777;stroke-width:1.5;}
	.st4{display:none;fill:none;stroke:#777777;}
	.st5{fill:none;stroke:#FFFFFF;}
	.st6{fill:none;stroke:#777777;stroke-width:1.5;}
</style>
<g id="BACKGROUND">
	<g>
		<g>
			<g>
				<g>
					<g>
						<defs>
							<rect id="SVGID_1_" width="750" height="500"/>
						</defs>
						<clipPath id="SVGID_2_">
							<use xlink:href="#SVGID_1_"  style="overflow:visible;"/>
						</clipPath>
						<g class="st0">
							<g>
								<g>
									<path class="st1" d="M1,465.6c8.5-5.2,19.3-1.5,26.9,3.7c7.4,5,13.1,12.3,16.9,20.3"/>
									<path class="st2" d="M50.2,504.3c-0.6-4.7-2-9.4-3.9-13.7c-1.9-4.3-4.3-8.3-7.2-12c-5.6-7.1-13.4-13.2-22.3-15.4
										c-5.4-1.4-13.2-1.7-17.9,1.4"/>
								</g>
							</g>
							<g>
								<g>
									<path class="st3" d="M-27.2,432.2c1.5,2.2,3.8,3.8,6.1,5.1c3.2,1.9,6.6,3.3,10,4.6c8.3,3.2,16.8,5.6,25.3,8.1
										c3.9,1.2,7.9,2.4,11.7,3.7c3,1,6.1,2.1,8.9,3.5c4,2,7.3,5.3,10.2,8.7c3.8,4.5,6.8,9.6,9.4,14.9c2.8,5.6,5.3,11.3,7.7,17
										c2.6,6.3,5.1,12.8,5.8,19.6"/>
									<path class="st2" d="M69.2,522.4c0.3-3.4-0.3-6.8-1-10.1c-0.8-3.4-1.8-6.6-3-9.8c-2.3-6-4.9-11.9-7.6-17.7
										c-4.8-10.2-10.7-21-20.3-27.4c-2.3-1.5-5-2.6-7.6-3.5c-3.6-1.4-7.4-2.5-11.1-3.6c-8.5-2.6-17.1-4.9-25.5-7.9
										c-3.8-1.3-7.5-2.7-11.1-4.4c-2.7-1.3-5.4-2.7-7.5-4.9c-0.4-0.4-0.8-0.8-1.1-1.3"/>
								</g>
							</g>
							<g>
								<g>
									<path class="st3" d="M26.5,425.8c4.1,2.1,7.7,5.1,10.2,9c3,4.5,4.9,9.5,8.1,13.8c2.9,4,6.6,7.4,10.9,9.9
										c2.2,1.3,4.5,2.1,6.6,3.4c2.3,1.4,3.8,3.5,4.9,5.9c1.2,2.6,2.2,5.3,3.2,7.9c1,2.7,2,5.4,3,8.1c1.9,5.5,3.8,11.1,5.4,16.7
										c3.3,11.2,6.1,22.5,8.3,34"/>
									<path class="st2" d="M89.1,538.4c-1.9-11.7-4.8-23.2-8-34.5s-7.1-22.4-11.5-33.2c-1-2.5-2-5-3.7-7.1
										c-1.6-2-3.9-3.1-6.2-4.2c-4.6-2.1-8.7-5-12.1-8.9c-1.7-2-3.3-4.1-4.6-6.4c-1.4-2.4-2.6-4.9-4-7.3
										c-2.4-4.2-5.5-7.7-9.6-10.3c-7.6-4.8-16.9-5.8-25.8-6.1c-1.1,0-2.2-0.1-3.3-0.1"/>
								</g>
							</g>
							<g>
								<g>
									<path class="st2" d="M120.3,529.8c-4.8-11.9-9.4-24-14.8-35.6c-5.2-11.2-11.2-22.1-19-31.7c-8-9.9-17.3-18.6-26.4-27.5
										c-9-8.8-17.9-17.8-28.2-25c-9.2-6.4-19.6-11.6-30.9-12.8c-1.4-0.1-2.7-0.2-4.1-0.2c-0.3-0.1-0.3,0.3,0,0.4"/>
									<path class="st3" d="M13.3,400.8c5.3,2,10.4,4.7,15.1,7.9c10.3,6.8,19.2,15.5,28,24.1c9,8.9,18.4,17.6,26.6,27.3
										c4,4.7,7.7,9.6,10.9,14.8c3.2,5.2,6.1,10.6,8.8,16.1c5.4,11.3,9.9,23.1,14.6,34.8"/>
								</g>
							</g>
							<g>
								<g>
									<path class="st3" d="M27.5,393.2c8.3,2,16.9,3.2,25.5,2.7c8.4-0.5,16.7-2.8,23.9-7.1c1.9-1.1,3.7-2.6,5.9-3
										c2.2-0.4,4.3,0.8,6,2.1c1.7,1.3,3.2,2.8,4.7,4.2c1.5,1.4,2.9,2.8,4.2,4.4c2.6,3.1,4.8,6.7,5.6,10.7
										c0.8,4.1,0.1,8.3-1.2,12.2c-2.4,8-6.7,15.6-5.7,24.2c1,8.7,6.3,16.1,11.3,22.9s10.2,13.5,14.9,20.4
										c4.7,6.9,9.1,14,12.5,21.6c3.4,7.5,5.7,15.5,6.2,23.8"/>
									<path class="st2" d="M142.6,538.5c0.3-8.3-1.2-16.6-4-24.4c-2.8-7.8-6.8-15.2-11.3-22.2c-4.6-7.1-9.6-13.9-14.7-20.7
										c-5.2-6.9-11.2-13.9-13.9-22.3c-1.4-4.3-1.8-8.7-0.9-13.1c0.8-4.1,2.4-8.1,3.8-12c1.4-3.8,2.7-7.8,2.9-11.9
										c0.2-4.1-0.8-8-2.8-11.6c-2-3.5-4.8-6.5-7.7-9.3c-1.5-1.4-3-2.9-4.7-4.2c-1.6-1.2-3.4-2.3-5.5-2.4c-2.2-0.1-4.1,1-5.9,2.1
										c-1.8,1.2-3.7,2.3-5.7,3.3c-3.8,1.9-7.9,3.2-12.2,4c-8.5,1.6-17.3,1.2-25.8-0.2c-8.9-1.5-17.5-4-26-6.8
										c-2-0.7-5.6-2.4-7.6-3"/>
								</g>
							</g>
							<g>
								<g>
									<path class="st2" d="M156.3,538.8c3.1-9.8,2.3-20.5-0.7-30.3c-3.1-10-8.7-19-15.3-27.1c-3.3-4.1-6.8-8.1-10.4-12
										c-1.8-1.9-3.6-3.9-5.3-5.8c-1.7-1.9-3.3-3.9-4.2-6.3c-1.1-2.9-0.6-5.8,0.1-8.7c0.7-2.9,1.4-5.8,2.2-8.6
										c1.5-5.9,3-11.8,4.5-17.7c1.5-5.9,2.9-11.7,4.4-17.5c1.4-5.7,3.1-11.4,3.7-17.3c0.6-5.1,0.4-10.3-1.4-15.2
										c-1.5-3.9-4-7.7-7.8-9.7c-4.2-2.2-9-1.6-13.4-0.3c-5,1.5-9.8,3.8-15,4.2c-5.3,0.4-10.6-0.6-15.9-0.6
										c-2.6,0-5.1,0.4-7.5,1.2s-4.5,2.3-6.6,3.8c-2.2,1.5-4.4,3-6.9,4s-5.2,1.7-7.9,2.1c-5.4,0.9-11,1-16.5,0.8
										c-11.3-0.3-22.6-2.4-33.3-6c-2.7-0.9-5.3-1.9-7.8-3c-0.5,0-0.6,0.4-0.4,0.6"/>
									<path class="st3" d="M26.9,378.1c5.5,0.6,11,0.9,16.5,0.7c5.2-0.2,10.5-0.6,15.5-2.2c2.5-0.8,4.8-1.9,6.9-3.4
										c2.2-1.5,4.3-3.1,6.6-4.4c4.8-2.5,10.3-2.1,15.6-1.7c2.6,0.2,5.3,0.4,7.9,0.4c2.5-0.1,4.9-0.5,7.3-1.2
										c4.8-1.4,9.4-3.7,14.4-4.3c4.8-0.5,9.1,1.3,12.1,5.1c2.9,3.7,4.3,8.5,4.6,13.1c0.4,5.9-0.8,11.8-2.2,17.5
										c-1.4,5.8-2.9,11.6-4.4,17.5c-1.5,5.8-2.9,11.6-4.4,17.4c-0.7,2.9-1.5,5.8-2.2,8.7c-0.7,2.9-1.6,5.7-2.1,8.6
										c-0.5,2.6-0.7,5.2,0.2,7.8c0.8,2.2,2.2,4.1,3.7,5.8c3.4,4,7,7.7,10.5,11.5c6.9,7.9,13.5,16.2,17.9,25.8
										c4.3,9.4,6.6,19.9,5.4,30.3"/>
								</g>
							</g>
							<g>
								<g>
									<path class="st3" d="M39,365.4c11.5-0.4,22.4-4.6,33.1-8.5c5.4-2,10.8-3.9,16.4-5.4c5.8-1.5,11.7-2.4,17.6-2.6
										c11.9-0.3,24.2,2.1,34.9,7.3c4.8,2.3,9,5.6,11.2,10.6c2.3,5.4,2.2,11.5,1.8,17.2c-0.9,12.1-4.6,23.7-9.1,34.9
										c-2.2,5.6-4.7,11.1-7.1,16.6c-2.2,5-4.4,10.5-1.9,15.8c1.1,2.4,2.9,4.4,4.5,6.4c1.8,2.2,3.4,4.4,5,6.7
										c3.1,4.4,6,9,8.5,13.8c10.7,19.6,16.9,41.8,18.2,64.1"/>
									<path class="st2" d="M173.6,550.5c-0.2-22.5-5.3-45-14.9-65.4c-4.6-9.8-10.4-19.1-17.1-27.6c-1.7-2.1-3.6-4.2-4.8-6.7
										c-1.4-2.9-1.3-6.1-0.4-9.1c0.9-3,2.3-5.8,3.5-8.6c1.2-2.7,2.4-5.4,3.5-8.1c4.7-11,8.9-22.4,10.7-34.3
										c0.9-5.7,1.3-11.6,0.6-17.3c-0.7-5.4-2.8-10.3-6.9-13.9c-3.9-3.4-8.9-5.4-13.7-7.1c-5.6-2-11.5-3.3-17.5-4
										c-5.9-0.6-11.9-0.6-17.8,0.1s-11.6,2.2-17.3,4.1c-11,3.6-21.7,8.4-33.1,10.7c-6,1.2-12,1.5-18,0.8
										c-6.4-0.7-12.6-2.4-18.8-4.4c-2.9-0.9-8.7-2.8-11.6-3.8"/>
								</g>
							</g>
							<g>
								<g>
									<path class="st2" d="M187.4,549.4L187.4,549.4c-4.3-13.9-8.6-27.8-13-41.6c-4.3-13.6-8.7-27.1-12.8-40.8
										c-2-6.5-3.8-13.2-4.8-19.9c-1-6.5-1.1-13.1-0.6-19.7c1.1-12.4,4-24.5,5.2-36.8c1.1-11.3,0.3-23.1-5.7-33
										c-5.3-8.7-14.1-14.7-23.7-17.6c-11.1-3.4-22.6-2.7-33.8-0.6c-13.6,2.5-26.8,6.6-40.5,8c-27.4,2.7-55.2-2.8-80-14.4
										c-3-1.4-5.9-2.9-8.8-4.4"/>
									<path class="st3" d="M45.5,349.3c6.8-0.1,13.6-0.6,20.3-1.7c6.8-1.1,13.4-2.7,20.1-4.2c12.2-2.9,24.9-5.7,37.5-4
										c10,1.4,19.9,5.5,27,13c8,8.5,10.7,20.1,10.4,31.5c-0.3,12.3-3.1,24.3-4.8,36.4c-0.8,6.1-1.4,12.2-1.1,18.4
										c0.3,6.8,1.5,13.4,3.2,20c1.7,6.5,3.8,13,5.8,19.4c2.2,6.9,4.3,13.7,6.5,20.6c4.4,13.7,8.7,27.4,13.1,41.1"/>
								</g>
							</g>
							<g>
								<g>
									<path class="st4" d="M181.4,479.3c-2.6-14.7-4.2-29.6-4.7-44.5c-0.5-14.1,0.5-28.1,0.4-42.2c-0.2-12.8-1.5-26.1-7.5-37.6
										c-5.8-11-15.6-18.6-26.8-23.5c-5.5-2.4-11.2-4.3-17-5.9c-6.8-1.9-13.9-3.9-21-4.1c-7.3-0.2-14.1,2.3-20.7,4.9
										c-6.3,2.5-12.5,4.8-19.2,6.1C40.2,337.3,14,330-5.5,314.2"/>
									<path class="st5" d="M-9.3,311.2c15.3,14.3,35.8,22.7,56.6,23c5.1,0.1,10.2-0.3,15.2-1.3c4.3-0.8,8.5-2,12.7-3.3
										c1.5-0.5,3-0.9,4.5-1.4c3.1-0.9,6.1-1.8,9.3-2.3c3.3-0.6,6.6-0.8,9.9-0.9c6.5-0.7,13.1-1,19.8,0.1
										c6.7,1.1,13.4,3.4,19.7,6.2c5.3,2.3,10.3,5,14.8,8.4c9.8,7.6,16.1,18.2,19.4,30.3c3.4,12.6,3.4,26.2,3.6,39.5
										c0.1,11.9,0.4,23.7,1.4,35.5c0.6,6.6,1.3,13.3,2.3,19.9c2.5,16.6,6.5,32.9,11.9,48.7c0.9,2.7,1.8,5.3,2.9,8"/>
									<path class="st4" d="M-13.1,308.2c17.2,17.7,41.6,27.8,66.3,26.7c6-0.3,12-1.2,17.8-2.8c6.8-1.9,13.1-4.9,19.8-7.2
										c3.6-1.2,7.2-2.1,11-2.4c4-0.3,8,0.3,11.9,1.1c6.4,1.3,12.8,3.1,19,5.1c11.7,3.8,23.1,9.5,31,19.2
										c8.4,10.4,11.2,23.9,12,37c0.8,13.8-0.4,27.6-0.4,41.4c0.1,14.7,1.2,29.5,3.3,44.1c4.2,28.9,12.5,57.3,24.7,83.8
										c1.5,3.2,3,6.4,4.7,9.6"/>
								</g>
							</g>
							<g>
								<g>
									<path class="st3" d="M22.1,301.3c6.2,2.5,12.6,4.5,19.1,6.4c6.8,2,13.7,4,20.6,5.5c7.3,1.5,15.2,2.3,22.4-0.3
										c6.1-2.1,11.2-6.2,16.4-9.8c5.4-3.7,11.3-6.9,18-6.8c6.8,0,13.2,3.1,18.8,6.8c6,4,11.3,9,16.4,14.1
										c4.9,4.9,9.7,9.7,14.2,14.9c9.2,10.4,17.2,22.2,20.8,35.8c1.9,7.3,2.7,14.9,5.3,22c2.5,6.8,7.3,12.6,8.5,19.9
										c2.3,13.6-6.6,26.2-12.6,37.6c-3,5.6-5.6,11.4-7,17.7c-1.3,5.9-1.8,12-1.3,18.1c0.9,11.9,4.9,23.6,12.2,33.1"/>
									<path class="st2" d="M200.3,521.9L200.3,521.9c-8.9-8.3-14.4-19.8-16.6-31.7c-2.3-12.5-0.8-25.3,4.6-36.8
										c2.9-6.3,6.5-12.2,9.6-18.4c2.8-5.6,5.4-11.6,6-18c0.3-3.1,0.2-6.2-0.6-9.2c-0.8-3.4-2.4-6.5-4-9.6
										c-1.8-3.4-3.6-6.7-4.8-10.4c-1.1-3.6-1.9-7.3-2.6-11c-1.4-7.1-3.1-13.9-6.1-20.5c-2.8-6.2-6.6-12-10.7-17.4
										c-4.1-5.4-8.7-10.5-13.5-15.4c-4.8-5-9.7-10-14.9-14.6c-9.5-8.4-22.2-16.8-35.4-12.7c-6.1,1.9-11.3,5.9-16.4,9.4
										c-2.7,1.8-5.4,3.6-8.3,5c-3.5,1.6-7.3,2.5-11.2,2.7c-7.8,0.4-15.5-1.8-22.9-3.8c-6.5-1.8-12.9-3.5-19.3-5.6
										c-12.9-4.2-25.5-9.6-36.2-18.1c-2.7-2.1-5.2-4.4-7.5-6.9"/>
								</g>
							</g>
							<g>
								<g>
									<path class="st2" d="M-13.7,240.4L-13.7,240.4c4.9,3.1,9.7,6.1,14.6,9.2c1.2,0.8,2.5,1.5,3.7,2.3c1.1,0.7,2.2,1.4,3.3,2
										c1.8,0.9,4.1,1.5,5.6-0.3c1.3-1.5,1.2-3.7,0.9-5.6c-0.4-2.2-1.1-4.3-1.9-6.4c-1.6-4-3.8-7.8-6.7-11.1
										c-3.1-3.6-6.8-6.6-11.1-8.6"/>
									<path class="st3" d="M10.4,239.7c0.9,1.9,1.6,3.9,2.2,5.9c0.5,1.9,1.2,4,0.7,5.9c-0.2,0.9-0.8,1.8-1.7,2.1
										c-1,0.3-2.1-0.1-3.1-0.5c-1.1-0.5-2.1-1.2-3.1-1.8c-1.1-0.7-2.3-1.4-3.4-2.1"/>
								</g>
							</g>
							<g>
								<g>
									<path class="st4" d="M20.1,248.3c-0.1,2-0.2,3.9-0.5,5.9c-0.3,2-0.8,4-1.8,5.8c-0.8,1.5-2.1,2.7-3.6,3.3
										c-1.3,0.5-2.6,0.6-4,0.5c-3.1-0.4-6.1-1.9-9-3.1s-6-2.5-9.2-2.5"/>
									<path class="st4" d="M4.7,206.9c5.1,5.5,9,12,11.6,19"/>
									<path class="st5" d="M-10.1,259L-10.1,259c6.9-0.7,12.4,4.1,18.9,5.6c2.9,0.7,5.9,0.3,8.1-1.8c3-2.8,3.7-7.2,4.1-11.1
										c0.8-7.8-0.2-15.8-2.6-23.3c-2.4-7.4-6.1-14.3-11-20.3c-4.7-5.6-10.5-10.4-17.3-13.3c-0.8-0.4-1.6-0.7-2.5-1"/>
								</g>
							</g>
							<g>
								<g>
									<path class="st2" d="M-4.6,264.4L-4.6,264.4c2,2.2,4.3,4.3,6.6,6.1c2.3,1.8,4.7,3.5,7.3,4.7c4.5,2.1,9.8,2.9,14.5,1
										c5-1.9,8.1-6.5,9.5-11.5c1.5-5.5,1.6-11.3,0.9-16.9c-1.4-11.5-6.6-22.2-12.7-31.9c-6-9.5-13.3-18.1-19.8-27.3
										c-6.4-9.1-12.1-18.9-14.8-29.8c-0.3-1.4-0.6-2.7-0.9-4.1"/>
									<path class="st3" d="M-2.6,184.8c6,9.1,13.1,17.5,19.3,26.5c6.5,9.3,12.2,19.3,15,30.4c1.4,5.5,1.9,11.2,1.4,16.9
										c-0.5,5.1-1.9,10.8-6,14.4c-3.8,3.4-9.3,4-14,2.7c-5.5-1.5-10.1-5.2-14.3-8.9"/>
								</g>
							</g>
							<g>
								<g>
									<path class="st3" d="M-5.9,167.2c2.8,6,7.2,11.1,11.9,15.7c4.9,4.8,10.1,9.3,14.4,14.7c4.5,5.5,8.4,11.5,12.2,17.5
										c7.4,11.4,14.5,23.5,18,36.8c1.7,6.4,2.4,13.1,1.7,19.8c-0.4,3.2-1,6.6-2.3,9.5c-0.6,1.4-1.4,2.7-2.5,3.7
										c-1.2,1-2.8,1.5-4.4,1.6c-1.6,0.1-3.1-0.2-4.7-0.5c-1.8-0.4-3.6-0.8-5.4-1.1c-3.8-0.8-7.5-1.6-11.3-2.4
										c-7.5-1.6-15-3.2-22.6-4.7"/>
									<path class="st2" d="M-6.7,276.9L-6.7,276.9c7.7,1.8,15.3,3.5,23,5.2c3.8,0.8,7.5,1.6,11.3,2.5c3.7,0.8,7.4,1.7,11.2,2.4
										c2.9,0.5,6.2,0.8,8.8-1c2.5-1.7,3.6-4.6,4.4-7.4c1.8-6.4,2.1-13.2,1.2-19.8c-1.9-13.6-8.4-26.3-15.4-37.9
										c-3.7-6.1-7.5-12-11.6-17.8c-2.1-2.9-4.3-5.8-6.6-8.5c-2.3-2.6-4.7-5-7.2-7.4c-5-4.8-10.2-9.4-14.1-15.2
										c-3.6-5.4-6.1-11.7-6-18.2c0-1.6,0.2-3.2,0.4-4.8"/>
								</g>
							</g>
							<g>
								<g>
									<path class="st2" d="M-27.2,275.5c9.5,3.8,19.1,7.1,28.8,10.1c9.6,3,19.4,5.6,29.2,7.9c4.9,1.2,9.9,2.2,14.9,3.2
										c4.8,1,9.7,1.9,14.5,2.6c4,0.5,8.1,0,10.9-3.2c2.3-2.7,3.3-6.4,3.3-9.9c0.2-8.8-5.7-16.2-9.8-23.5
										c-4.4-7.8-8.1-15.9-11.6-24.1c-3.5-8.3-6.7-16.6-10.1-24.9c-3.4-8.2-7-16.4-11.4-24.1c-4.3-7.7-9.5-14.6-15-21.4
										c-5.5-6.8-11.2-13.6-15.4-21.3c-1-1.9-2-3.9-2.9-5.9c0.1-0.5-0.4-0.3-0.3,0"/>
									<path class="st3" d="M26.9,183.6c9.4,14.8,15.5,31.4,22,47.6c3.3,8.2,6.7,16.4,10.6,24.3c1.9,3.8,4,7.6,6.2,11.3
										c2.3,3.8,4.8,7.7,6.3,12c1.3,3.7,1.7,7.7,0.7,11.5c-0.9,3.4-3,6.7-6.6,7.7c-2.3,0.6-4.7,0.3-7-0.1
										c-2.4-0.4-4.9-0.8-7.3-1.3c-4.8-0.9-9.6-1.9-14.3-2.9c-19.5-4.3-38.8-10-57.5-17"/>
								</g>
							</g>
							<g>
								<g>
									<path class="st3" d="M19.1,155.8c3.6,3.9,7.5,7.7,11,11.7c3.7,4.1,6.8,8.6,9.4,13.4c2.6,5,4.7,10.2,6.8,15.4
										c2.3,5.4,4.5,10.9,6.8,16.3c4.5,10.8,8.9,21.6,13.5,32.4c3.8,8.8,8,17.8,14.9,24.5c3.1,3,7.4,5.1,9.8,8.8
										c2.7,4.4,0.9,9.3-2.4,12.8c-3.4,3.7-8.2,5.9-12.8,7.6c-4.8,1.8-9.9,2.9-15,3.4c-22.2,2.1-43.3-6.8-63-16"/>
									<path class="st2" d="M-9.6,283.2L-9.6,283.2c19.6,10,40.7,20.1,63.2,20.3c10.4,0.1,20.9-2,30-7c3.8-2.1,7.4-5.2,9.2-9.3
										c1.8-4.1,0.7-8.5-2.4-11.7c-1.5-1.5-3.3-2.8-5-4.1c-2-1.5-3.8-3.2-5.4-5.1c-3.2-3.7-5.8-7.9-8-12.3
										c-2.3-4.6-4.3-9.3-6.2-14c-2.3-5.6-4.6-11.1-6.9-16.7c-4.7-11.3-9.2-22.6-14-33.8c-2.2-5.1-4.5-10.1-7.5-14.7
										c-3-4.6-6.8-8.7-10.6-12.7c-7.5-7.8-14.7-15.8-21.2-24.5c-6.6-8.8-12.6-18-18-27.6c-1.3-2.4-2.6-4.8-3.9-7.2"/>
								</g>
							</g>
							<g>
								<g>
									<path class="st3" d="M149,11.3c-9.9,12.6-21.5,23.7-34.1,33.5C102.5,54.5,89,63,75.1,70.5S45.3,84,35.5,97.1
										c-2.6,3.4-4.4,7.4-7,10.8c-2.6,3.3-6.1,5.6-10.3,6.3c-8.9,1.5-16.8-3.6-23.3-9.1"/>
									<path class="st2" d="M-10.5,100.8L-10.5,100.8c6,6.2,12.9,12.8,21.8,14.3c3.7,0.7,7.6,0.4,11.2-1.1c4-1.7,6.7-4.9,8.9-8.4
										c2.4-3.7,4.5-7.5,7.4-10.7c2.8-3.1,6-5.8,9.4-8.2c6.8-4.8,14.4-8.3,21.7-12.1c14.2-7.3,27.9-15.5,40.8-25
										c13.1-9.6,25.2-20.5,35.7-32.9C157,4.1,165.9-9.9,172.3-25c0.8-1.9,1.5-3.8,2.2-5.7"/>
								</g>
							</g>
							<g>
								<g>
									<path class="st2" d="M-9.6,86.3L-9.6,86.3c4,6.4,8.6,13.9,16.3,16.2c3.4,1,7.2,0.9,10.3-0.9c3.5-2,5.5-5.8,7.8-8.9
										c9.8-12.8,23.5-21.9,37.3-29.9c16.2-9.5,32.5-18.6,48.8-27.9c7-4,13.9-8.1,20.4-13c6.4-4.9,12.2-10.6,16.7-17.3
										c8.7-12.9,13.4-28.2,22.4-40.9c1.1-1.6,2.3-3.2,3.6-4.7"/>
									<path class="st3" d="M150.7-2c-3.9,7-8.7,13.2-14.7,18.5c-6,5.4-12.8,9.8-19.7,13.9c-7.7,4.6-15.6,9-23.4,13.4
										c-8.3,4.8-16.6,9.5-24.9,14.3C54.6,65.8,41,73.7,30.1,85c-2.7,2.8-5.2,5.8-7.5,9c-2.4,3.3-4.6,6.9-8.8,7.9
										C5.5,104-1.4,97-5.8,90.9"/>
								</g>
							</g>
							<g>
								<g>
									<path class="st2" d="M-5.4,85.8L-5.4,85.8c2.2-0.5,4.5-0.3,6.7-0.1C3,85.9,4.8,86,6.5,85.9c3-0.2,5.8-0.8,8.6-1.9
										c5.7-2.2,10.8-5.8,15.4-9.8c10.4-9,19.1-19.9,30.5-27.8c12.5-8.7,26.8-14.3,40.7-20.4c6.6-2.9,13.1-5.9,19.2-9.5
										c5.8-3.4,11.2-7.3,16.2-11.7c10-8.9,18-20.1,21.1-33.3c0.4-1.6,0.6-3.2,0.8-4.9"/>
									<path class="st3" d="M151.5-14.4c-3.3,5.8-7.5,11-12.2,15.6c-9.8,9.6-21.7,16.3-34,21.9c-13.7,6.2-27.9,11.5-40.7,19.5
										c-6,3.8-11.5,8.2-16.7,13.1c-4.8,4.6-9.4,9.5-14.3,14.1c-4.6,4.3-9.4,8.4-15,11.4c-2.6,1.4-5.4,2.5-8.3,3.2
										c-3.3,0.8-6.6,0.7-10,0.5"/>
								</g>
							</g>
							<g>
								<g>
									<path class="st2" d="M-6.2,75.3L-6.2,75.3c5.5,3,11.9,2.1,17.3-0.7c6.1-3.1,10.6-8.1,14.8-13.4c4.3-5.5,8.4-11.3,13.6-15.9
										c5.3-4.6,11.7-7.6,18.2-9.9c6.4-2.3,13-4,19.4-6.3c6.1-2.2,12-4.9,17.7-7.9c11.8-6.3,22.6-14.2,32.3-23.3
										c4.9-4.6,9.6-9.6,13.9-14.8c2.1-2.5,4.3-5.1,6.1-7.9c1.4-2.2,2.6-5,2.2-7.6c-0.2-1.2-0.8-2.1-1.8-2.8"/>
									<path class="st3" d="M146.8-26.9c-1.4,2.7-3.5,5.1-5.4,7.5c-4.1,5.2-8.6,10.1-13.4,14.8c-9.3,9-19.7,16.9-31,23.3
										c-5.5,3.1-11.3,5.9-17.2,8.2c-6.1,2.4-12.4,4.2-18.7,6.2S48.5,37.5,43,41.2c-5.6,3.8-9.9,8.9-14,14.1
										c-4,5.4-8,11-13.3,15.2c-4.8,3.8-11,6.7-17.2,5.8"/>
								</g>
							</g>
							<g>
								<g>
									<path class="st2" d="M0.6,54.2L0.6,54.2c4.9,2.3,10.5,1.5,15.3-0.7c5.3-2.4,9.6-6.5,13.8-10.3c4.1-3.8,8.3-7.3,13-10.2
										c4.3-2.7,8.9-5,13.6-7c9.5-4,19.4-7,29.2-10.5C95.2,12,104.8,8,113.3,2.1c8.2-5.7,15.8-13.6,18.1-23.7
										c0.3-1.3,0.5-2.5,0.6-3.8"/>
									<path class="st3" d="M115.1-0.5C107,5.7,97.7,9.9,88.3,13.4c-9.5,3.5-19.2,6.4-28.6,10.1s-18.5,8.4-26.2,15
										c-4.4,3.8-8.4,8-13.1,11.4C16,53,10.6,55.5,5.1,54.8"/>
								</g>
							</g>
							<g>
								<g>
									<path class="st2" d="M0,44.4l2.7-0.7c9-4.3,18-8.6,27-12.9s18-8.7,26.9-13c2.2-1.1,4.4-2.1,6.6-3.2
										c1.6-0.8,3.2-1.6,4.6-2.7c2.7-2,4.9-4.9,4.4-8.4c-0.5-4-4.2-6.6-7.2-8.8c-3.4-2.6-7.1-4.9-10.9-6.9
										c-7.4-3.9-15.5-6.6-23.8-7.7c-1-0.1-2.1-0.3-3.1-0.4"/>
									<path class="st3" d="M50.7-12.6c3.8,1.8,7.4,3.8,10.8,6.2c1.8,1.2,3.4,2.5,5.1,3.8c1.4,1.1,2.8,2.4,3.7,4
										c0.8,1.6,1,3.4,0.4,5.1C70.2,8,69,9.3,67.8,10.3c-1.3,1.1-2.7,1.9-4.2,2.7c-2.1,1.1-4.2,2-6.3,3.1
										c-8.6,4.2-17.3,8.4-25.9,12.6c-8.7,4.2-17.3,8.4-26,12.7"/>
								</g>
							</g>
							<g>
								<g>
									<path class="st2" d="M-22.7,29.6L-22.7,29.6c4.1,0.1,8.3-0.1,12.3-0.5c4.1-0.3,8.2-0.8,12.3-1.4c8.2-1.3,16.3-3.1,24.2-5.5
										c4-1.2,8-2.6,11.9-4.1c3-1.1,6.3-2.2,8.3-4.8c0.9-1.1,1.4-2.5,1.3-4c-0.1-1.7-1-3.2-2.1-4.5c-1.1-1.4-2.5-2.6-4-3.8
										s-2.9-2.3-4.4-3.4c-6-4.1-12.9-7.4-20-8.9c-0.9-0.2-1.7-0.3-2.6-0.4"/>
									<path class="st3" d="M24.4-7.8c3.3,1.3,6.5,2.9,9.5,4.8c3.1,1.9,6,4.1,8.7,6.5c2.3,2,5.2,4.9,3.5,8.2
										c-1.4,2.7-4.8,3.9-7.5,4.9c-3.8,1.5-7.6,2.8-11.4,4C19.6,23.1,11.9,25,4,26.3c-7.9,1.4-15.8,2.2-23.8,2.5"/>
								</g>
							</g>
							<g>
								<g>
									<path class="st2" d="M-8.5,12.8L-8.5,12.8c4.5,2.1,9.2,3.7,14.1,4.6c2.4,0.4,4.9,0.7,7.3,0.8c2.3,0.1,4.7,0.1,7-0.2
										c2-0.3,3.7-1.3,4.4-3.2c0.7-1.9,0.1-4.1-0.7-5.9c-0.9-2.1-2.2-4.1-3.5-6c-1.3-2-2.7-3.9-4.2-5.7c-3.3-4.2-7-8-11.1-11.4"/>
									<path class="st3" d="M21.3,6.8c1,1.7,2,3.6,2.2,5.6c0.2,2.1-0.9,3.8-2.9,4.3c-2,0.6-4.4,0.5-6.5,0.5
										c-2.3,0-4.6-0.1-6.9-0.4"/>
								</g>
							</g>
							<g>
								<g>
									<path class="st2" d="M-8.4,6.4L-8.4,6.4c3,0.5,6.1,1,9.2,1.2c2,0.1,3.9-0.6,5.3-2C7.3,4.3,8,2.4,7.9,0.5
										C7.8-1.9,6.2-3.8,4.8-5.7c-1.9-2.5-4-5.2-6.6-7.1"/>
									<path class="st3" d="M2.9-6.4c0.9,1.1,1.7,2.2,2.5,3.3C6-2.2,6.5-1.4,6.8-0.4c0.9,3.6-2,7.2-5.7,7.2
										c-1.5,0-3.1-0.2-4.6-0.3"/>
								</g>
							</g>
							<g>
								<g>
									<path class="st3" d="M572.6,600c1.4-7.6,3.6-15.1,4.4-22.8c1.8-18.6-3.5-37.6-9-55.2c-5.5-17.4-12.8-33.9-20.7-50.4
										c-4-8.4-7.8-16.9-9.4-26.1c-1.5-8.9-1.3-18-2.9-26.9c-5-27.6-22.5-53.7-47.7-66.6c-5.8-3-12-5.2-18.5-6.6
										c-8-1.7-16.3-2.3-24.2-4.2c-8-1.9-15.6-5.2-21.4-11.2c-5.1-5.3-8.6-12-11.4-18.8c-5.9-14.3-9.4-29.3-17.4-42.7
										c-7.4-12.5-17.4-23.4-29.3-31.8c-12.5-8.8-26.4-13.7-41.4-15.8c-16.7-2.4-34.5-3.6-46.8-16.7c-5.6-5.9-9-13.6-9-21.8
										c0-9.2,3.4-18,2.2-27.2c-0.5-4-2.2-7.7-2.4-11.7c-0.2-4,0.8-8,2.8-11.4c2.1-3.6,5.3-6.1,9-7.8c3-1.4,6.1-2.9,8.6-5.2
										c5.4-5,6-12.1,5.9-19c-0.1-8.5,0.7-16.1,6-23.1c10.5-13.8,27.9-16,44-14c9.2,1.2,18.3,3.3,27.6,4.1
										c6.8,0.6,13.6,0.6,20.4-0.1c13.4-1.3,26.6-4.9,38.9-10.4C457,44.9,479.3,24.8,494,0.4"/>
									<path class="st2" d="M502.8-18.8L502.8-18.8c-12.3,27.9-32.7,52-59.1,67.5c-12.4,7.3-25.9,12.6-40,15.5
										c-15.9,3.2-31.3,2.4-47.2-0.3c-15.5-2.7-32.2-5.5-46.6,2.7c-5.6,3.2-10.6,7.8-13.7,13.4c-3.5,6.3-3.9,13-3.8,20
										c0.1,4.8,0.1,9.8-2.3,14.1c-2,3.7-5.4,6.1-9,8c-6,3-11,6.1-13.5,12.7c-1.1,2.8-1.6,5.8-1.4,8.7c0.2,3.8,1.7,7.2,2.3,10.9
										c1.5,9.9-2.4,19.4-2.1,29.2c0.5,13.9,10.5,25.3,22.7,31.1c15.8,7.4,34,5.7,50.5,10.8c30.3,9.4,52.5,34.7,63,63.9
										c4.9,13.7,8.5,28.9,18.3,40.1c10.6,12.1,26.4,13.5,41.3,15.8c14.8,2.4,28.2,8.2,39.7,17.9c11.4,9.7,20.3,22.3,26.1,36.1
										c3,7.2,5.1,14.7,6.3,22.4c1.4,9.3,1.1,18.8,3.3,28c2,8.4,5.7,16.2,9.4,23.9c4,8.3,8,16.5,11.4,25.1
										c7.2,17.7,13.4,36.4,16.4,55.3c1.7,10.2,1.9,20.5-0.1,30.7c-1.5,7.6-3.7,15.1-4.2,22.9c-0.4,6.2,0.7,12.3,4.7,17.3"/>
								</g>
							</g>
							<g>
								<g>
									<path class="st2" d="M476.7-17c-1.4,17.3-13.7,30.6-27.6,39.8c-7.4,4.9-15.2,8.9-22.6,13.6c-7,4.5-13,9.8-19.1,15.5
										c-6,5.7-12.8,10-21.4,9.2c-7.1-0.7-13.6-4.1-19.7-7.4c-12.1-6.4-24.5-13.5-38.5-8.6c-7.5,2.6-14.1,7.5-20.4,12.2
										S294.9,67,289.8,73c-4.5,5.4-8,11.6-9.7,18.5c-2,8.2-2,16.4-10,21.2c-7.9,4.8-22,6.3-22.2,18.1c-0.1,7.5,5.8,13.5,8.2,20.3
										c3.1,8.5,2.4,17.8,2,26.6c-0.4,7.9-0.7,16,1.5,23.7c1.8,6.2,5.2,11.8,9.6,16.4c9,9.4,21.7,14.6,34.2,17.3
										c15.6,3.3,31.9,3.5,46.9,9.3c15.3,6,25.3,18.1,32.5,32.5c6.7,13.5,11.3,27.9,18,41.4c6.7,13.4,16,25.1,28.3,33.8
										c12.4,8.8,26,13,41,14.4c4.7,0.4,9.4,1,13.6,3.3c3.8,2.1,6.9,5.2,9.5,8.6c5.4,6.8,9.5,14.7,13.1,22.6
										c14.5,31.3,19.2,65.9,28.3,98.9c4.8,17.3,11.4,33.9,17.4,50.9c6.1,17.1,11.6,34.9,12.2,53.2c0.3,8.9-0.8,17.8-3.2,26.3"/>
									<path class="st3" d="M544.6,527.4c-5.9-16.4-10.6-33.1-14.6-50c-4-16.6-7.6-33.4-12.6-49.8c-4.8-15.6-10.9-31-19.8-44.7
										c-3.9-6-8.7-12.1-15.5-14.9c-7.6-3.2-16.2-2.4-24.1-4c-15.4-3.2-29.5-11.5-40.5-22.8c-11-11.4-17.7-25.5-23.7-40
										c-5.6-13.6-10.7-27.8-19.8-39.6c-9.4-12.3-22.7-18.8-37.6-22c-14.8-3.2-30.3-3.5-44.6-8.7c-13.5-4.9-26.3-14-31.2-28.1
										c-5.6-16.2,1.5-33.7-3.4-50c-2.3-7.6-9.7-14.7-8.8-23c0.7-6.6,6.4-9.7,11.9-11.9c5-2.1,10.5-3.9,14.2-8
										c5-5.5,4.5-13.4,6.5-20.1c4.7-16.1,19.5-27.3,32.7-36.5c7.6-5.2,16.3-9.9,25.8-9.2c7.3,0.6,14.1,3.9,20.4,7.2
										c10.5,5.5,22.8,13.6,35.1,9.3c7-2.4,12.1-8.2,17.3-13.1c6.7-6.3,14.5-11.1,22.4-15.7c13.4-7.8,27-15.7,35.4-29.2"/>
								</g>
							</g>
							<g>
								<g>
									<path class="st2" d="M444.9-12.1c-8.4,16.2-20.1,30.7-34.6,41.8c-7.8,5.9-16.2,9.9-26.2,9.1c-9.4-0.7-17.1-6.2-26-8.8
										c-15.9-4.7-33.1-3-46.6,6.9c-11.6,8.5-19.7,20.9-28.1,32.3c-8.6,11.7-18.1,23.6-32.1,28.9c-6,2.3-12.9,3.9-17.6,8.5
										c-2.1,2.1-3.6,4.8-4.2,7.7c-0.9,4.2,0.9,7.9,1.1,12c0.2,4.7-1.4,9.4-4.6,12.9c-2.2,2.3-4.5,3.6-5.9,6.6
										c-1.9,4.2-2.1,10.6,1.7,13.9c2.3,2,5.3,1.7,8.2,1.5c5.3-0.3,8.7,2.2,9.2,7.6c0.9,9.2-6,14.8-11.1,21.3
										c-4.5,5.6-6.4,12.2-4.8,19.3c1.6,7.2,6.2,13.7,11.9,18.2c7,5.6,15.8,8.3,23.9,11.9c4.1,1.8,8.1,3.9,11.7,6.6
										c3.6,2.6,7,5.6,10.8,8.1c3.5,2.3,7.2,4,11.3,4.6c4.3,0.6,8.6,0.4,13,0.4c8,0,16.1,0.4,24,1.9c16.3,3.1,30.4,11.4,37.8,26.7
										c7.5,15.8,8.5,34,18.1,48.9c8.4,13,21.3,22.1,34.7,29.4c26.9,14.7,61.5,26.1,72.3,58.1c2.6,7.6,3.8,16.1,1.1,23.9
										c-1.4,4-3.8,7.6-7.7,9.5c-3.9,1.9-7.7,2.7-10.5,6.3c-4.4,5.8-4.9,14-3.9,20.9c1.3,8.2,5.2,15.8,10.1,22.5
										c10.2,13.9,25.4,23,35.8,36.7c11.8,15.4,14,34.7,13.1,53.5"/>
									<path class="st3" d="M529.4,624.3c2.3-17.6,4.5-35.8,1.3-53.4c-1.5-8.3-4.4-16.4-9-23.5c-4.7-7.2-10.8-13.3-17.2-19
										c-13-11.8-27.4-23.9-31.2-41.9c-1.9-8.8-1.1-21.5,8.3-25.8c3.6-1.7,7.1-2.5,9.8-5.7c1.9-2.3,3.2-5,4-7.9
										c3.9-14-2.4-29.5-10.9-40.4c-9.3-12-22.4-20.7-35.7-27.6c-13.8-7.3-28.4-13.2-41.3-22.1c-6.6-4.6-12.7-10-17.7-16.4
										c-5.5-7.1-9.1-15.3-11.7-23.9c-4.8-15.6-7.6-32.8-20.5-44.2c-10.9-9.6-25.6-13-39.7-14c-3.9-0.3-7.8-0.4-11.6-0.4
										c-4.8,0-9.6,0.4-14.3-0.5c-9.2-1.8-15.6-9.3-23.2-14.2c-15.3-9.8-36.6-11.8-43.5-31.2c-1.5-4.1-2-8.5-0.9-12.7
										c1.2-4.7,4.2-8.4,7.3-11.9c4.5-5.1,8.7-10.1,8.7-17.3c0-5.6-2.8-10.4-8.9-10.3c-4.5,0.1-9.1,0.9-10.9-4.3
										c-1.2-3.3-0.6-7.3,1-10.4c1.6-3.1,5-4.8,7-7.7c1.9-2.7,2.9-5.9,3.1-9.1c0.3-4.5-1.8-8.6-1.2-13s3-7.9,6.7-10.3
										c5.9-3.9,13.1-5.1,19.4-8.3c5.9-3,11-7.3,15.6-12.1c10-10.6,17.5-23.3,26.8-34.4c4.7-5.5,9.9-10.8,16-14.7
										c8-5.1,17.2-7.5,26.6-7.4c9.6,0.1,19.1,2.8,27.7,6.9c7.3,3.5,14.9,5.3,23,4c8.2-1.3,14.8-5.8,21.1-11
										c6.6-5.4,12.5-11.4,17.8-18c5.5-6.9,10.2-14.4,14.2-22.2"/>
								</g>
							</g>
							<g>
								<g>
									<path class="st3" d="M392.5-0.5c-4.8,7.3-12.1,12.8-20.3,15.8c-8.7,3.1-17.9,2.9-26.9,1.4c-16.8-2.6-35.5-9.2-51.3,0.5
										c-10.3,6.4-16.9,17.4-22.5,27.8c-5.9,11-11,22.9-18.8,32.7c-3.4,4.3-7.5,8.2-12.5,10.6c-2.5,1.2-5.2,2-7.9,2.3
										c-4.5,0.6-9.2-0.2-13.5,1.4c-7.4,2.8-9.7,10.7-9.8,18c0,1.9,0.1,3.8,0.3,5.8c0.3,2.6,1,5.2,0.4,7.8
										c-0.4,2.1-1.4,4.1-2.8,5.7c-1.4,1.6-3.3,2.6-4.9,3.9c-3.1,2.6-5.3,6.3-5.8,10.3c-0.5,3.9,0.7,7.6,2.9,10.7
										c4.9,7,13.6,11,15.3,20.1c0.4,2.2,0.3,4.6-0.8,6.6c-1.1,2.1-3.1,3.4-5,4.6c-3.2,2.1-5.8,4.5-6.5,8.4
										c-1.5,7.7,1.8,16.6,5.7,23.2c8.5,14.3,23.3,23.2,37.6,30.7c4.9,2.6,9.8,5.1,14.5,8c2.9,1.8,5.1,4.4,6.1,7.7
										c1.9,6.4-0.9,13.5-6.9,16.6c-1.9,1-4,1.3-6,1.9c-2.5,0.7-5,1.5-7.5,2.4c-5.1,1.8-10.1,3.7-15.2,5.5
										c-10.1,3.6-20.4,6.6-31.2,6.4c-10.9-0.2-21.6-2.9-32.1-6c-8.7-2.6-17.3-5.6-25.6-9.3c-16.6-7.4-32.1-17.8-43.6-32.1
										c-22.3-27.7-27.3-65.4-50.4-92.5c-5.6-6.6-12.9-12.9-15.5-21.6c-1.3-4.5-0.8-9.3,1.8-13.2c2.5-4,6.5-6.8,10.3-9.5
										c17-12.2,35.1-22.7,52.7-34c31-20,60.9-44.1,76.6-78.4c3.7-8,6.4-16.4,8.1-25c0.4-0.6-0.1-0.8-0.2-0.4"/>
									<path class="st2" d="M117,63.1C99.8,75.7,81.3,86.4,63.4,97.9c-4.5,2.9-9,5.8-13.4,8.8c-4,2.7-8,5.4-11.7,8.5
										c-3.2,2.7-5.9,6-7.1,10.1c-1.1,3.8-0.6,7.9,0.8,11.5c3.2,8.1,9.9,14,15.4,20.5c5.8,6.9,10.4,14.7,14.5,22.7
										c8.2,16.1,14.2,33.1,22.5,49.1c4.1,7.9,8.8,15.4,14.5,22.2c5.9,7,12.8,13.1,20.3,18.3c14.9,10.3,32.1,17.1,49.4,22.1
										c10.4,3,21.2,5.6,32.1,5.6c10.4,0,20.4-3,30.1-6.4c5.1-1.8,10.1-3.7,15.2-5.5c2.5-0.9,5-1.7,7.5-2.4
										c1.9-0.5,3.9-0.9,5.7-1.7c5.5-2.5,8.9-8.3,8.7-14.3c-0.1-3-1-5.9-2.8-8.3c-2.3-3.3-5.9-5-9.3-6.9
										c-8.3-4.6-16.9-8.7-24.9-13.9c-7-4.6-13.6-10.1-18.7-16.8c-5.2-6.8-9.2-15.6-9-24.3c0.1-2.6,0.6-5.2,2.3-7.2
										c1.4-1.6,3.3-2.6,5-3.8c3.1-2.1,5.3-4.8,5.5-8.7c0.5-8.9-7.1-14.5-12.6-20.1c-3.3-3.3-6.1-7.4-5.9-12.3
										c0.2-4.8,3.1-9,7-11.6c3.3-2.2,5.8-5.3,6.6-9.2c0.9-4.2-0.6-8.6-0.7-12.8c-0.1-4.2,0.4-8.6,2.5-12.3c2.4-4.1,6.4-6,11-6.4
										c3.9-0.3,7.8,0,11.7-1c2.6-0.6,5-1.6,7.3-3c10.2-6,16.3-17.2,21.7-27.3c6.1-11.5,11.4-23.8,19.9-33.8
										c4-4.6,8.7-8.7,14.3-11.1c9.1-3.9,19.2-3.1,28.8-1.4c9.4,1.6,18.7,4.1,28.3,4.3c8.4,0.2,16.7-1.7,24-5.9
										c14.5-8.5,22.3-24.8,19.7-41.3c-1.1-7.3-4.3-14.3-9.7-19.3"/>
								</g>
							</g>
							<g>
								<g>
									<path class="st3" d="M348.7-18.5c-3.6,5.7-8.5,10.7-14.5,14.1c-6.9,3.9-14.8,4.9-22.6,5.4c-8,0.5-16.2,0.5-24,2.5
										c-6.6,1.7-12.5,5.1-17,10.2c-8,8.7-12.3,20.2-17,30.8c-4.3,9.5-9.2,21-18.9,26.1c-6.1,3.2-12.8,2.2-19.4,1.7
										c-6.8-0.5-13.8,0.5-17.7,6.8c-3.4,5.4-3.3,12.4-3.3,18.6c0,6.4,0.4,13.7-2.9,19.6c-3.5,6.3-11.5,8.3-14.3,15.2
										c-2.1,5.2-0.7,10.9,1.3,16c2.4,6.1,5.6,11.8,7.8,18c1,2.8,1.7,5.8,1.8,8.8c0.1,3.8-1.1,7.1-3.1,10.3
										c-2,3.4-4.3,6.5-5.3,10.4c-0.9,3.5-0.9,7.1-0.3,10.6c1.4,7.4,5.8,14.1,10.9,19.5c6.1,6.4,13.7,10.3,21.4,14.5
										c2.8,1.5,5.4,3.2,7.1,6c1.4,2.4,2.1,5.1,2,7.8c-0.2,5.5-3.5,10.5-8.6,12.7c-4,1.7-8.8,1.6-13,2c-4.9,0.4-9.9,0.6-14.8,0.5
										c-17.1-0.2-33.9-3.8-48.7-12.5c-13.5-7.9-24.5-19.7-30.5-34.2c-6-14.3-7.7-30-13.6-44.3c-2.7-6.6-6.5-12.9-12-17.7
										c-6.4-5.6-14.9-9.1-20.1-16.1c-4.9-6.5-7.1-16.4-0.5-22.6c2.9-2.7,6.6-4.2,10.2-5.7c4.1-1.7,8.1-3.4,12-5.3
										c15.6-7.4,30.4-16.3,44.3-26.6c14.3-10.6,27.8-22.5,39.8-35.7C176.5,35.8,186.6,21,190,4.3"/>
									<path class="st2" d="M189-19.2L189-19.2c4.5,17.8-2.3,35.8-12.1,50.6c-10,15-23.2,27.8-36.8,39.4s-28.2,21.8-43.8,30.5
										c-7.7,4.3-15.6,8.2-23.7,11.7c-6.7,2.9-15,5.3-18.1,12.7c-2.9,7,0.3,15.1,4.9,20.6c5.8,6.8,14.4,10.2,20.7,16.4
										c11,10.9,14,27.1,17.7,41.5c1.9,7.5,4,15,7.3,22c3.3,7.1,7.9,13.6,13.4,19.2c10.7,10.9,24.6,18.3,39.3,22.1
										c9,2.3,18.4,3.2,27.7,3.3c4.9,0,9.9-0.2,14.8-0.6c3.9-0.3,8.3-0.4,12-1.8c10.3-4,13.3-18.1,5.5-25.9
										c-2.8-2.8-6.5-4.3-9.9-6.1c-3.9-2.1-7.7-4.2-11.1-6.9c-6.4-5-12.1-11.8-14.8-19.5c-1.3-3.6-1.9-7.5-1.4-11.3
										c0.6-4.3,2.6-7.8,4.9-11.4c1.9-3,3.5-6.1,3.9-9.7c0.4-2.9,0-5.9-0.8-8.8c-1.6-6.3-4.8-12-7.4-17.9
										c-2.3-5.3-4.8-11.5-2.9-17.2c2.3-7.3,10.9-9.3,14.5-15.7c3.2-5.7,3.1-12.7,3.1-19.1c0-6.3-0.4-13.5,3-19
										c4.6-7.4,13.3-6.2,20.7-5.6c6.1,0.5,12.1,0.2,17.4-3.2c4.4-2.7,7.7-6.8,10.4-11c6.5-10.2,10.2-21.9,15.9-32.6
										c2.7-5.1,5.8-10,9.9-14.1c5.5-5.4,12.6-8.2,20.2-9.3c15.3-2.3,31.8,0.3,45.1-9.3c11.2-8.1,18-21.5,19.7-35
										c0.9-6.8,0.4-13.7-1.6-20.3"/>
								</g>
							</g>
							<g>
								<g>
									<path class="st3" d="M229.8,1.6c0.4,12.2-1.8,25-8.4,35.5c-5.5,8.8-14.1,14.1-22.8,19.3c-7.6,4.6-15.8,9.3-20.8,16.9
										c-2.6,4-4.1,8.6-4.4,13.4c-0.5,6.3,0.4,13.3-3.7,18.7c-3.4,4.3-8.5,6.9-11.6,11.5c-2.8,4.3-3.6,9.4-3.3,14.4
										c0.8,11.4,6.1,22,7.6,33.4c0.9,6.5-0.2,12.8-1.7,19.1s-3.4,12.7-3.5,19.3c-0.1,5.4,1.2,10.8,3.9,15.6
										c2.6,4.5,6.3,8.3,10.3,11.5s8.4,6,12.8,8.7c2.3,1.4,5.1,2.6,6.9,4.7c2,2.4,1,5.3-1.2,7.1c-3.9,3.2-9.9,3.6-14.8,3.7
										c-5.1,0.1-10.1-0.6-15-1.9c-10-2.8-19.2-8.4-26.5-15.8c-8-8.1-13.5-18.2-16.5-29.2c-3.5-13.2-4.1-27.1-8.4-40.1
										c-2.1-6.2-5-12.1-8.8-17.5c-1.6-2.2-3.4-4.3-4.6-6.8c-1-2.3-1.6-4.8-1.6-7.3c-0.1-5,2-9.9,5.6-13.4c2-1.9,4.4-3,6.8-4.3
										c2.6-1.4,5.2-2.9,7.7-4.4c20.9-12.6,39.4-29.1,54.8-48c7.9-9.7,15-20.1,21.1-31.1c6.3-11.4,11.4-23.9,12.7-36.9"/>
									<path class="st2" d="M201.5-21.2L201.5-21.2c2.6,13.7-0.5,27.8-5.6,40.6c-5,12.4-12.1,23.9-19.8,34.7
										c-14.6,20.4-32.7,38.3-53.5,52.5c-5,3.4-10.2,6.6-15.5,9.6c-2.4,1.3-5,2.5-7.2,4.2c-1.9,1.5-3.4,3.3-4.6,5.4
										c-2.3,4-3.1,8.7-2.3,13.3c1,5.7,5,9.6,8,14.4c7.5,11.9,9.7,25.6,12,39.2c2.1,12.3,4.8,24.3,11.7,34.9
										c11.2,17.2,31.2,29.4,52.1,28.4c4.7-0.2,10.1-0.7,13.9-3.6c1.7-1.3,3.2-3.1,3.4-5.3c0.2-2.6-1.3-4.6-3.3-6.1
										c-2.1-1.6-4.5-2.8-6.8-4.2s-4.6-2.8-6.8-4.4c-4.4-3.1-8.6-6.5-11.9-10.7c-3.5-4.5-5.8-9.8-6.2-15.5
										c-0.5-6.7,1.3-13.4,2.9-19.9c1.6-6.3,3-12.8,2.5-19.3c-0.5-5.8-2-11.5-3.7-17.1c-2.9-10.1-7.6-22.8-0.9-32.4
										c3.2-4.6,8.6-7.2,11.8-11.8c3.7-5.2,3.1-11.8,3.4-17.9c0.3-5.2,1.7-10,4.7-14.3c2.6-3.8,6.2-6.8,9.9-9.4
										c7.9-5.5,16.6-9.6,24.1-15.8c20.1-16.7,19.8-45.8,14.7-69.2c-1.5-7-3.4-13.9-5.3-20.8"/>
								</g>
							</g>
							<g>
								<g>
									<path class="st3" d="M144.6,208.8c-0.3,1.1-0.8,2.5-1.8,3.1c-1.3,0.8-2.6-0.2-3.3-1.2c-1-1.5-1.6-3.3-2.1-5
										c-2.2-7.2-2.1-14.9-2.6-22.4c-0.3-3.7-0.6-7.5-1.5-11.1s-2.3-7-4-10.3s-3.5-6.4-5.1-9.8c-0.8-1.7-1.5-3.4-2.1-5.2
										c-0.4-1.3-0.8-2.6-0.9-4c-0.1-1.3,0.4-2.2,1.6-2.8s2.6-1,3.7-1.8"/>
									<path class="st2" d="M146,204.6c-0.7-8.2-2.7-16.2-4.6-24.1c-1.9-7.9-3.9-15.9-4.6-24c-0.3-3.9-0.3-7.9,0.3-11.8
										c0.3-2,0.7-3.9,1.2-5.9c0.5-1.9,1.2-3.8,1.8-5.7c0.9-3.3,1.6-7.3-0.5-10.3c-1.7-2.4-5.1-3.5-7.8-2.1s-3.8,4.8-3.4,7.7
										c0.1,0.4,0.2,0.8,0.3,1.1s0.3,0.7,0.3,1c0,0.8-0.2,1.7-0.4,2.4c-0.3,1.1-0.7,2.2-1.3,3.2c-0.9,1.3-2.3,2-3.8,2.6
										c-1.2,0.5-2.4,1-2.9,2.3c-0.3,0.8-0.3,1.6-0.2,2.4c0.2,1.6,0.7,3.2,1.2,4.7c1.2,3.6,3,6.9,4.8,10.3c1.8,3.4,3.7,6.9,5,10.5
										c1.3,3.7,1.9,7.7,2.3,11.6c0.7,7.8,0.4,15.8,2.3,23.4c0.5,1.8,1,3.6,1.8,5.4c0.6,1.4,1.5,3,3,3.6c2.8,1,4.4-2,4.9-4.2
										C146,207.5,146.1,206,146,204.6"/>
									<path class="st3" d="M129.8,124.3c0.6-1.4,1.6-2.6,3.1-3c1.4-0.4,2.9-0.3,4.2,0.5c3.2,1.8,3.2,5.9,2.5,9.1
										c-0.8,3.7-2.3,7.1-3.1,10.8c-0.7,3.7-1,7.4-0.9,11.1c0.2,7.7,1.8,15.3,3.6,22.8c1.8,7.7,3.9,15.3,5.1,23.1"/>
								</g>
							</g>
							<g>
								<g>
									<path class="st3" d="M218.3-20.4c0.2,1,0.4,2.1,0.6,3.1c0.4,2.1,0.6,4.2,0.7,6.4c0.3,4.2,0.1,8.4-0.4,12.6
										c-0.2,1.3-0.2,3.1-1.3,4c-0.7,0.6-1.6,0.8-2.5,0.6c-0.9-0.2-1.7-0.8-2-1.7c-0.2-0.6-0.2-1.2-0.1-1.9
										c0.1-1.1,0.2-2.1,0.2-3.2"/>
									<path class="st2" d="M212.8-15.4L212.8-15.4c0.1,4.8,0,9.7-0.4,14.5c-0.1,1.2-0.2,2.4-0.3,3.6c-0.1,0.8-0.1,1.5,0.1,2.2
										c0.3,1.1,1.1,2,2.2,2.4c2.2,0.9,4.7-0.1,5.5-2.4c0.3-0.9,0.4-2,0.5-3c0.2-1.1,0.3-2.3,0.4-3.4c0.2-2.3,0.3-4.6,0.2-6.9
										c-0.1-2.6-0.3-5.1-0.6-7.7c-0.2-1.3-0.4-2.5-0.7-3.8s-0.5-2.6-1.1-3.7"/>
								</g>
							</g>
							<g>
								<g>
									<path class="st3" d="M258.1-7.8c-2.6,9.4-6.5,18.5-11.6,26.9c-1.3,2.1-2.5,4.3-4.4,5.9c-1.3,1-3.6,2.1-4.6,0.2
										c0,0.2,0,0.4,0,0.7c5.7-10.8,9.5-22.6,11.2-34.7"/>
									<path class="st2" d="M249.1-19.4L249.1-19.4c-0.3,2.1-0.4,4.2-0.7,6.3s-0.6,4.3-1,6.4c-0.8,4.2-1.8,8.3-3.1,12.4
										s-2.7,8.1-4.5,12c-0.8,1.9-1.7,3.8-2.7,5.6c-0.2,0.5-0.5,0.9-0.7,1.4c-0.2,0.4-0.4,0.7-0.1,1.2c0.3,0.6,0.9,1.1,1.5,1.4
										c1.3,0.5,2.7,0.1,3.9-0.5c1.4-0.8,2.6-2,3.6-3.3c2.3-3.3,4.3-6.8,6.1-10.3c3.7-7.3,6.6-15,8.7-22.9c2-8,3.2-16.2,3.5-24.5
										c0-1,0-2,0-3.1"/>
								</g>
							</g>
							<g>
								<g>
									<path class="st2" d="M246.1,533.6c-4.8-5.1-5.1-12.5-3.6-19c1.7-7.3,5.6-13.4,10.3-19c4.9-5.9,10.3-11.4,13.8-18.2
										c1.9-3.6,3.2-7.5,3.8-11.5c0.7-4.4,0.6-8.9,0.5-13.4c-0.3-8.8-0.7-17.7,2.5-26.1c2.7-7.1,7.3-13.3,12.4-18.8
										c5.1-5.6,10.9-10.6,16-16.2c5.6-6,10.5-12.7,13.7-20.3c3.1-7.4,4.3-15.6,2-23.3c-2.3-7.9-7.8-14.5-13.3-20.4
										c-5.2-5.6-11.6-11.1-19.4-12.6c-7.2-1.4-14,1.4-19.3,6.3c-5.7,5.3-9.5,12.2-12.2,19.4c-2.9,7.6-4.5,15.6-5.4,23.6
										c-1.9,17-0.8,34.1-1.4,51.1c-0.3,8.5-0.9,17.1-2.6,25.5c-1.7,8.5-4.2,16.7-7,24.9c-5.4,16.1-11.7,32.1-13.6,49.1
										c-0.5,4.1-0.6,8.3-0.5,12.4c0.3,0.2,1,0.2,1-0.2"/>
									<path class="st3" d="M234.4,477.4c2.8-8,5.7-16,8-24.2c2.3-8.1,4-16.3,4.9-24.7c1.7-16.8,0.6-33.6,1.2-50.4
										c0.6-16.1,2.6-33.1,11-47.1c3.7-6.3,9.2-12.4,16.4-14.6c7.8-2.4,15.4,1,21.4,5.9c3.1,2.5,5.9,5.4,8.5,8.5
										c2.8,3.2,5.4,6.5,7.5,10.1c4.3,7.3,5.3,15.6,3.1,23.8c-2.1,8-6.7,15.3-12,21.6c-4.9,5.9-10.7,11-16.1,16.5
										c-5.1,5.2-10.1,10.8-13.6,17.3c-1.8,3.2-3.2,6.6-4.1,10.2c-1.1,4.1-1.4,8.4-1.4,12.7c0,9,1.3,18.3-1.3,27.1
										c-2.2,7.5-7.1,13.6-12,19.4c-4.7,5.5-9.6,10.9-12.6,17.6c-2.7,6.1-4.2,13.1-2.7,19.7"/>
								</g>
							</g>
							<g>
								<path class="st2" d="M260.6,472.4"/>
								<path class="st2" d="M263.1,449.5c-0.8-2.3-2.1-6.1-5-6.4c-2.3-0.3-4.2,1.9-5.4,3.6c-1.8,2.6-3.1,5.5-4.1,8.5
									c-1.1,3.3-1.5,6.7-2.9,9.8c-0.9,2-2,3.8-2.2,6c-0.2,2.7,0.5,5.6,2.5,7.6c1.8,1.8,4.4,2.7,7,2.4c3-0.4,5.2-2.2,6.7-4.7
									c4.2-7,5.9-15.8,4.2-23.8C263.7,451.4,263.4,450.4,263.1,449.5"/>
								<path class="st3" d="M248.1,478.9c-2.3-1.4-3.4-3.8-3.6-6.4c-0.1-1,0-2.1,0.3-3.1c0.3-0.9,0.7-1.7,1.1-2.5
									c0.6-1.1,1.1-2.3,1.5-3.5c0.6-1.7,1-3.4,1.4-5.2c0.7-2.9,1.7-5.7,3.1-8.3"/>
							</g>
							<g>
								<g>
									<path class="st2" d="M258.5,457.6c-0.5-1.4-1.3-3.5-3.1-3.6c-1.5,0-2.6,1.4-3.2,2.6c-1.1,2-1.3,4-1.5,6.2
										c-0.3,2.3-1.1,4.4-1.8,6.6c-0.5,1.5-1.1,3.4-0.3,4.9c0.6,1.2,2.1,2,3.4,1.8c1.2-0.2,2.3-1,3-2c1.1-1.3,1.8-2.8,2.5-4.4
										C258.9,466,259.8,461.5,258.5,457.6"/>
									<path class="st3" d="M253,474.6c-0.9,0.6-1.8,0.6-2.7,0c-1.3-0.8-1.1-2.3-0.9-3.5c0.4-1.8,1.1-3.5,1.6-5.3
										c0.3-1,0.5-2,0.6-3.1c0.1-1,0.2-2,0.4-3c0.4-1.5,1.1-3.6,2.5-4.4"/>
								</g>
							</g>
							<g>
								<g>
									<path class="st2" d="M286.7,351.8c-1.1-1.6-2.6-3.4-4.7-3.7c-2.3-0.4-3.9,1.5-5.2,3c-3.1,3.6-5.6,7.7-7.5,12
										c-1.9,4.4-3.3,9-4.1,13.7c-0.9,5.4-0.8,10.9-1.4,16.4c-0.1,1.1-0.3,2.2-0.5,3.3c-0.2,0.8-0.5,1.5-0.6,2.3
										c-0.2,1.7,0.6,2.8,2.1,3.4c1.9,0.8,4.1,0.3,5.8-0.8c1.9-1.1,3.1-2.6,4.1-4.5c1.1-2,2.1-4.2,3.7-6c1.3-1.5,2.9-2.7,4.5-3.9
										c3.2-2.3,6.7-4.3,9.2-7.4c6.2-7.8,1.3-17.9-3.5-25C288.1,353.8,287.4,352.8,286.7,351.8"/>
									<path class="st3" d="M292.6,364.2c1.5,3.9,2.2,8.3,0.5,12.2c-1.5,3.5-4.7,5.9-7.8,8c-3,2.1-6.3,4.1-8.5,7.1
										c-1.4,1.8-2.2,3.9-3.4,5.9c-1,1.7-2.4,2.9-4.2,3.7c-0.9,0.4-1.9,0.6-3,0.5c-0.8-0.1-1.9-0.4-2.4-1.1
										c-0.8-1.1,0.1-2.9,0.4-4.1c0.5-2.2,0.6-4.5,0.8-6.8c0.2-2.6,0.3-5.1,0.5-7.7c0.4-4.8,1.4-9.4,2.9-13.9
										c1.4-4.2,3.3-8.2,5.7-11.9c1.3-1.9,2.7-3.7,4.3-5.4c0.7-0.7,1.5-1.5,2.5-1.7s2,0.3,2.8,0.9"/>
								</g>
							</g>
							<g>
								<g>
									<path class="st3" d="M297.2,360c2,5.3,3,11.2,0.7,16.6c-2.1,4.8-6.3,8-10.5,10.8c-4.1,2.8-8.5,5.5-11.5,9.6
										c-1.9,2.5-3,5.5-4.6,8.1c-1.4,2.2-3.3,3.9-5.8,4.9c-1.2,0.5-2.5,0.8-3.9,0.6c-1.1-0.1-2.5-0.6-3.2-1.6
										c-1.1-1.5,0-3.9,0.4-5.5c0.8-3,0.9-6.2,1.1-9.2c0.2-3.5,0.4-6.9,0.6-10.4c0.5-6.4,1.9-12.6,3.9-18.7
										c1.9-5.7,4.4-11.1,7.8-16.1c1.7-2.6,3.6-5,5.8-7.2c1-1,2.2-2.1,3.7-2.3c1.4-0.1,2.7,0.5,3.7,1.4"/>
									<path class="st2" d="M288.9,343.5c-1.5-2.1-3.6-4.6-6.4-4.9c-3.1-0.3-5.3,2.5-7.1,4.6c-4.1,4.8-7.4,10.3-9.8,16.1
										c-2.5,5.9-4.4,12.1-5.3,18.5c-1.1,7.1-1,14.4-1.7,21.5c-0.2,1.5-0.4,2.9-0.7,4.4c-0.3,1-0.6,2.1-0.7,3.2
										c-0.1,0.9,0,1.8,0.5,2.5c0.6,1,1.7,1.6,2.8,1.9c2.6,0.8,5.5-0.1,7.7-1.5c1.1-0.7,2.1-1.5,2.9-2.4c1-1.2,1.8-2.6,2.5-3.9
										c1.4-2.7,2.8-5.4,4.9-7.7c1.8-2,4-3.6,6.1-5.1c4.3-3,8.9-5.7,12.2-9.9c8.1-10.4,1.3-24-5-33.4
										C290.7,346,289.8,344.7,288.9,343.5"/>
								</g>
							</g>
							<g>
								<g>
									<path class="st3" d="M302.9,354.8c2.6,7,3.9,14.8,0.8,21.9"/>
									<path class="st2" d="M291.6,333.1c-2-2.8-4.6-6-8.2-6.4c-4.1-0.5-7,3.3-9.4,6c-5.4,6.3-9.6,13.5-12.9,21.1
										c-1.6,3.8-3,7.7-4.1,11.7c-1.2,4.1-2.2,8.3-2.9,12.5c-1.5,9.4-1.3,19-2.3,28.5c-0.2,1.9-0.4,3.8-0.9,5.7
										c-0.4,1.4-0.8,2.8-1,4.2c-0.2,1.2-0.1,2.5,0.6,3.5c0.8,1.3,2.3,2,3.7,2.4c3.5,1.1,7.3-0.2,10.2-2.1
										c1.4-0.9,2.6-1.9,3.6-3.2c1.3-1.6,2.3-3.4,3.3-5.2c1.9-3.5,3.6-7.1,6.4-10c2.4-2.5,5.2-4.7,8-6.7c5.6-4,11.8-7.6,16.1-13.1
										c2.2-2.9,3.8-6.3,4.4-10c0.7-3.8,0.4-7.6-0.4-11.3c-1.8-8.1-6.1-15.6-10.6-22.5C294,336.4,292.8,334.8,291.6,333.1"/>
									<path class="st3" d="M274.6,403.9c-2.4,3.4-3.9,7.3-6.1,10.7c-1.9,2.9-4.5,5.1-7.8,6.4c-1.6,0.6-3.5,1-5.2,0.7
										c-1.4-0.2-3.2-0.9-4-2.1c-0.7-1-0.7-2.2-0.5-3.4c0.2-1.4,0.7-2.7,1-4c0.5-1.8,0.7-3.6,0.9-5.4c0.3-2.3,0.4-4.6,0.6-6.9
										c0.3-4.6,0.5-9.2,0.8-13.9c0.7-8.4,2.5-16.7,5.2-24.7c2.5-7.5,5.9-14.8,10.4-21.4c2.3-3.4,4.9-6.6,7.7-9.5
										c1.3-1.4,2.9-2.6,4.9-2.7c1.8,0,3.4,0.8,4.7,1.9"/>
								</g>
							</g>
							<g>
								<g>
									<path class="st2" d="M251.4,560.5c1-19.3,11.2-36.2,19.6-53c4.2-8.3,8.1-16.9,10.4-25.9c1.1-4.5,1.9-9.1,2.1-13.8
										c0.3-6-0.6-12.1-0.3-18.1c0.3-7.6,2.8-14.7,7-21.1c3.9-6,8.9-11.1,14-16c10.2-9.6,22-18.3,29.5-30.4
										c3.6-5.8,5.9-12.4,6.2-19.2c0.5-10-3.4-19.6-9.3-27.6c-10.7-14.6-27.7-25.2-45.8-27.5c-8.4-1-17-0.1-24.7,3.5
										c-8.2,3.8-14.6,10.5-18.9,18.4c-9.6,17.9-9,39.4-7.9,59c0.6,11.7,1.4,23.5,0.4,35.2c-0.5,5.8-1.5,11.6-3.2,17.2
										s-4.3,10.9-6.9,16.2c-2.5,5.1-5.1,10.2-7,15.6c-1.9,5.3-3.1,10.7-3.8,16.2c-1.5,11.5-0.9,23.2,0.5,34.7
										c0.6,5.6,1.4,11.1,2.2,16.7c0,0.4,0.8,0.2,0.7-0.3"/>
									<path class="st3" d="M218.4,472c4.1-10.7,10.5-20.3,13.7-31.3c3.2-10.8,3.8-22.2,3.5-33.4c-0.4-21.1-3.7-42.5,1.7-63.2
										c2.4-9.1,6.6-18,13.5-24.6c6.2-5.9,14.2-9.4,22.7-10.3c17.7-1.9,35.8,6.3,48.3,18.5c7.2,6.9,13.2,15.5,15.5,25.3
										c1.8,7.6,1,15.7-2.2,22.9c-5.7,12.7-17.1,21.9-27.2,30.9c-10.2,9.1-20.8,19.2-24.8,32.7c-1.2,4.2-1.7,8.5-1.7,12.8
										c0,5.8,0.7,11.6,0.2,17.5c-0.7,9.3-3.7,18.2-7.4,26.7c-7.5,16.9-18.1,32.6-22.6,50.8"/>
								</g>
							</g>
							<g>
								<g>
									<path class="st2" d="M272.8,555.4c5.1-10.1,10.2-20.3,13.8-31.1c3.6-10.9,5.5-22.1,4.5-33.6c-0.5-6.1-1.5-12.2-1.8-18.3
										c-0.3-5.6,0.1-11.2,1.4-16.7c2.5-10.2,7.8-19.5,14.1-27.8c12.9-17,30.8-30.1,41.3-49c9.3-16.7,12.7-39.3,0.2-55.4
										c-11.2-14.4-30.7-18.3-47.8-20.7c-11.4-1.6-23-2.4-34.4-0.4c-9.6,1.7-18.7,5.5-26.4,11.6c-7,5.6-12.6,13-15.7,21.5
										c-3.9,10.7-2.7,21.9-0.9,32.9c0.9,5.9,1.9,11.8,2.2,17.7c0.3,5.6,0.1,11.2-0.4,16.8c-1.1,11.1-4,22.1-8.5,32.3
										c-4.3,9.7-10.7,18.4-15.2,28c-2.1,4.6-3.7,9.4-4.4,14.4c-0.6,4.5-0.5,9.1,0.1,13.6c2.7,18.9,14.1,35.2,18.7,53.6
										c1.1,4.5,1.9,9.1,1.9,13.7c0,0.7,0.9,0.7,0.9,0.1"/>
									<path class="st3" d="M200,505.5c-3-8.6-5-17.6-3.9-26.7c1.3-10.4,6.7-19.5,11.9-28.4c5.4-9.2,10-18.6,12.9-28.9
										c2.9-10.5,4.3-21.4,4.1-32.3c-0.1-5.6-0.8-11.1-1.6-16.6c-0.9-6-2-12-2.4-18.1c-0.5-10.1,1.8-19.8,7.5-28.3
										c5-7.5,12.2-13.5,20.3-17.4c9.9-4.8,21.2-6.2,32.1-6c10.4,0.2,21,1.7,31.2,3.9c8.4,1.9,16.8,4.6,23.9,9.5
										c7.6,5.2,13.2,12.8,15.5,21.8c2.5,9.8,1,20.3-2.3,29.8c-7.2,20.3-24,34.3-38.1,49.8c-6.8,7.5-13,15.6-17.4,24.7
										c-4.7,9.6-6.8,19.8-6.2,30.5c0.4,6,1.3,11.9,1.8,17.8c0.5,5.8,0.3,11.5-0.5,17.3c-1.7,11.1-5.7,21.6-10.4,31.8"/>
								</g>
							</g>
							<g>
								<g>
									<path class="st3" d="M300.3,529.2c-1.4-22.5-3.7-45.8,2.2-67.9c3-11.2,8.3-21.3,15.1-30.6c6.9-9.4,14.9-17.9,22.5-26.8
										c14.6-17.1,28.4-38,26.8-61.5c-1.4-20.1-14.6-38-32.2-47.4c-22-11.6-48.2-8.5-71.2-2.2c-12.8,3.5-25.3,7.9-37.6,12.8
										c-5.6,2.2-11.3,4.4-16.6,7c-4.2,2.1-8.3,4.7-11.3,8.4c-7.7,10-2,22.4,2.9,32.3c5.6,11.3,11.3,23,13.1,35.6
										c0.9,6.4,0.8,12.9-0.9,19.1c-1.6,5.7-4.3,11-7.3,16s-6.2,9.8-9,14.9c-2.5,4.7-4.6,9.6-6.2,14.6
										c-6.5,20.4-5.8,43.2,2.2,63.1"/>
									<path class="st2" d="M200.4,530.3L200.4,530.3c-11.2-18.4-15.1-41.1-11.8-62.3c1.6-10.6,5.1-20.8,10.4-30.1
										c5.6-9.7,12.6-18.8,15.5-29.8c3.1-11.8,0.7-24-3.4-35.2c-2.1-5.7-4.7-11.2-7.3-16.7c-2.7-5.6-5.8-11.1-7.4-17.2
										c-1.5-5.8-1.1-12,2.6-16.9c3-3.9,7.4-6.5,11.8-8.5c5.5-2.6,11.1-4.8,16.8-7c6.3-2.5,12.6-4.8,19-7c23.6-8,50.1-14.9,74.9-8
										c19.5,5.5,36.2,20.8,41.8,40.5c6.4,22.7-4.3,45-18,62.7c-13.8,17.9-31.3,33.1-40.4,54.2c-8.7,20.2-8.6,42.8-7.4,64.3
										c1.2,22.3,3.9,45,0,67.1c-0.9,5.3-2.2,10.4-4.1,15.5"/>
								</g>
							</g>
							<g>
								<g>
									<path class="st2" d="M334.9,562c-2.5-13.1-3.9-26.5-4.1-39.8c-0.2-13.2,0.7-26.5,3.1-39.6c2.3-12.7,5.9-25.3,11.3-37.1
										c5.1-11.4,11.9-22.1,20.3-31.4c4.7-5.1,9.8-9.8,14.1-15.3c2.2-2.8,4.1-5.8,5.5-9.1c1-2.4,2-4.9,0.8-7.4
										c-1.7-3.6-6.8-4.8-9.9-2.4c-0.9,0.7-1.5,1.6-1.9,2.6c-0.7,1.6-1.3,3.2-2,4.8c-1.4,3.2-2.9,6.4-4.6,9.5
										c-6.6,11.9-15.5,22.6-26.4,30.8c-5.2,3.9-11,7.1-15.7,11.7c-2.4,2.4-4.4,5.1-5.8,8.2c-1.5,3.2-2.3,6.7-2.8,10.2
										c-0.5,3.7-0.6,7.5-0.7,11.2c-0.1,4.2-0.2,8.4-0.3,12.6c-0.2,8.5-0.4,17-0.6,25.4c-0.4,17.1-0.6,34.2-0.9,51.2
										c-0.1,4.1,0,8.2-0.1,12.3c-0.2,0.6,0.3,0.6,0.3,0.2"/>
									<path class="st3" d="M316.1,520.3c0.5-16.8,0.8-33.5,1.2-50.3c0.2-7.2,0.3-14.8,3.2-21.5c2.8-6.2,8-10.5,13.5-14.2
										c5.4-3.7,10.6-7.3,15.4-11.8c4.9-4.6,9.3-9.7,13.1-15.1c3.9-5.6,7.3-11.5,10.1-17.8c0.7-1.6,1.4-3.1,2-4.8
										c0.5-1.2,0.8-2.4,1.8-3.3c1.4-1.3,3.4-1.6,5.2-0.9c1.8,0.6,3.1,2.2,3.2,4.2c0,1.5-0.6,3-1.2,4.3c-0.7,1.7-1.6,3.3-2.5,4.8
										c-3.6,5.9-8.7,10.7-13.5,15.6c-8.7,9-15.9,19.1-21.5,30.2c-5.7,11.3-9.7,23.3-12.4,35.6c-2.8,12.7-4.2,25.7-4.5,38.7
										s0.6,26.1,2.6,39"/>
								</g>
							</g>
							<g>
								<g>
									<path class="st2" d="M366.4,568c-2.8-15.6-5.5-31.3-6.5-47.2c-0.9-14.4-0.3-29,3.1-43c3.1-12.9,8.6-25.4,17.4-35.5
										c4.7-5.4,10.1-10.3,14.4-16c3.8-5,6.7-10.7,8.8-16.6c4.1-12,4.8-25.7,1.2-37.9c-0.4-1.3-0.9-2.6-2.2-3.3
										c-1.1-0.5-2.3-0.3-3.3,0.4c-2.8,1.9-2.5,5.5-1.8,8.4c0.8,3.4,1.3,6.8,1,10.3c-0.2,3.4-1,6.7-2.1,9.9
										c-4.8,13.6-15.8,23-25.3,33.4c-4.6,5.1-8.8,10.5-12.1,16.5c-3.4,6-6,12.4-7.9,19c-4.1,14.2-4.2,29.1-3.1,43.8
										c1.1,15.2,3.4,30.3,3.9,45.6c0.1,3.7,0.1,7.4-0.1,11c0,0.3,0.7,0.3,0.8-0.2"/>
									<path class="st3" d="M350.6,522c-1.5-14.8-2.6-29.9-0.3-44.6c2.1-13.4,7.3-26.3,15.3-37.3c8.2-11.3,19.7-19.8,27.2-31.5
										c3.5-5.5,6.2-11.8,7.2-18.3c0.5-3.2,0.5-6.4,0-9.5c-0.3-1.8-0.8-3.4-1.1-5.2c-0.3-1.6-0.4-3.6,0.8-4.9
										c1.1-1.2,2.5-1,3.1,0.5c0.6,1.4,0.9,3.1,1.2,4.6c0.7,3.1,1.1,6.3,1.2,9.4c0.3,6.4-0.3,12.8-1.8,19c-1.5,6.1-4,12-7.3,17.3
										c-3.7,5.9-8.7,10.8-13.4,15.8c-4.5,4.8-8.6,10-11.9,15.7c-3.2,5.6-5.7,11.6-7.6,17.7c-4.1,13.1-5.6,26.8-5.4,40.5
										c0.2,15.5,2.4,30.8,5,46"/>
								</g>
							</g>
							<g>
								<g>
									<path class="st2" d="M417.3,539.5c0.3,0.8,1.6,0.4,1.6-0.4c-0.8-15.4-2.9-30.7-6.4-45.7c-0.3-1.4-0.6-2.8-1.3-4.1
										c-0.6-1-1.5-1.9-2.4-2.6c-1.9-1.3-4.3-1.6-6.5-1c-2.6,0.8-4.3,2.9-5.9,5c-1.8,2.4-3.2,5.1-4.2,7.9
										c-2.3,6.3-2.6,13.3-0.4,19.7c0.1,0.6,0.8,0.4,0.7-0.1"/>
									<path class="st6" d="M418.8,538.7"/>
									<path class="st3" d="M392.6,501.2c0.8-2.7,2-5.3,3.6-7.7c0.7-1.1,1.5-2.2,2.4-3.2c0.8-0.9,1.6-1.8,2.7-2.4
										c1.8-1,4-1,5.9-0.1c0.9,0.5,1.7,1.1,2.3,2c0.8,1.1,1,2.4,1.3,3.6c1.6,7,3,14.1,4,21.2"/>
								</g>
							</g>
							<g>
								<g>
									<path class="st2" d="M428.3,521.9c-0.4-0.6-1.1-0.9-1.7-0.3c-0.5,0.5-0.6,1.3-0.5,2c0.2,0.8,0.9,1.3,1.7,1.1
										c1-0.2,1.6-1.1,1.9-2.1c0.3-1.2,0.2-2.4,0.1-3.5c-0.1-1.4-0.2-2.7-0.4-4.1c-0.3-2.6-0.8-5.2-1.4-7.7
										c-2.6-10.3-7.6-19.8-13.2-28.7c-2.8-4.5-5.8-8.8-8.8-13.1c-1.4-2-2.9-4.1-5.3-4.9c-2-0.6-4,0.1-5.5,1.3
										c-3.8,3-5.3,8.3-6.7,12.7c-1.8,5.5-3.2,11.2-4.2,16.9c-2.2,11.5-2.8,23.2-2.2,34.9c0.1,1.4,0.2,2.9,0.3,4.3
										c0,0.5,0.9,0.6,0.9-0.1"/>
									<path class="st6" d="M427.8,523.3c-0.1,0,0-0.5,0-0.5s0.1-0.2,0-0.2c0-0.1,0,0,0,0"/>
									<path class="st3" d="M384.7,498.6c0.8-5.3,1.8-10.5,3.1-15.6c0.6-2.5,1.4-5.1,2.2-7.6c0.7-2.3,1.4-4.7,2.5-6.9
										c1.3-2.8,4-7.5,7.8-6.4c2,0.6,3.3,2.7,4.5,4.4c1.4,2,2.7,4,4.1,6c5.4,8,10.5,16.3,14.1,25.2c1.8,4.5,3.3,9.1,4.2,13.9"/>
								</g>
							</g>
							<g>
								<g>
									<path class="st2" d="M445.5,544c-4.4-3-5.9-8.4-6.5-13.4c-0.6-5.9-0.2-11.9-0.2-17.9c0-6.6-1-13.2-3-19.5
										c-2.1-6.4-5.1-12.4-8.7-18.1s-7.8-11-12.2-16c-2.2-2.5-4.5-4.9-6.9-7.3c-2.4-2.5-4.9-5.1-8-6.8c-2.9-1.6-6.3-1.9-9.1,0.2
										c-2.7,1.9-4.3,5-5.7,7.9c-3.3,6.3-5.8,13-7.7,19.8c-1.9,6.9-3,14-3.4,21.1c-0.4,7.2-0.1,14.4,1,21.5
										c0.3,1.7,0.6,3.5,0.9,5.2c0,0.3,0.8,0.1,0.7-0.4"/>
									<path class="st3" d="M377.5,478c1.5-6.9,3.7-13.6,6.6-20c1.4-3,2.9-6.2,4.8-8.9c1.8-2.6,4.4-4.8,7.8-4.1
										c3.4,0.8,6.1,3.4,8.5,5.8c2.4,2.3,4.6,4.7,6.9,7.1c4.4,4.9,8.6,10,12.3,15.5c7.3,11,12.5,23.6,12.8,37
										c0.1,5.8-0.4,11.6,0,17.5c0.3,5.2,1.2,10.8,4.7,15"/>
								</g>
							</g>
							<g>
								<g>
									<path class="st2" d="M467.6,564.8c0.6,1.8,1.2,3.7,1.8,5.6c0.3,0.8,1.5,0.9,1.7,0c3.2-12.6,3.5-26,1.3-38.8
										c-2.1-12.6-6.8-24.8-14-35.5c-2-2.9-4.1-5.8-5.8-8.9c-1.5-2.7-2.5-5.6-3-8.6c-1.1-5.8-0.4-11.8,1.4-17.4
										c1.8-5.5,4.7-10.6,8.7-14.8c4.1-4.3,9.4-7.6,12-13c2.7-5.6,1.8-12.2-1.1-17.6c-3.1-5.7-8.5-9.5-14.1-12.5
										c-3.4-1.8-7-3.4-10.5-5c-3-1.4-6.2-3.4-9.6-3.3c-2.5,0-4.8,0.9-6.7,2.5c-1,0.8-1.8,1.8-2.4,2.9c-0.7,1.3-1,2.6-1.3,4
										c-1.7,6.7-5.6,12.5-8.1,18.9c-1.2,3.1-2,6.3-2.1,9.6c-0.1,3.3,0.5,6.5,1.6,9.6c2.2,6.3,6.2,11.7,10,17.1
										c7.8,11,15,22.4,21.1,34.5c6.1,12.2,10.9,25.1,13.4,38.5c0.6,3.3,1,6.7,1.3,10c-0.1,0.4,0.7,0.5,0.6-0.1"/>
									<path class="st3" d="M469.4,569.9c0.6,0,1.1,0,1.7,0"/>
									<path class="st3" d="M454.5,504.1c-5.1-12.3-11.6-23.9-18.9-35c-3.6-5.5-7.5-10.7-11.1-16.2c-3.6-5.4-6.9-11.4-7.2-18
										c-0.4-6.8,2.7-13,5.6-18.9c1.5-3.1,3-6.1,4.1-9.4c0.5-1.5,0.7-3.1,1.3-4.5c0.5-1.1,1.1-2.2,2-3c1.8-1.7,4.2-2.6,6.7-2.5
										c1.5,0.1,2.9,0.6,4.3,1.3c2.9,1.3,5.7,2.7,8.5,4c5.2,2.4,10.5,4.9,14.8,8.9c4.4,4.2,7.5,10.2,7.1,16.4
										c-0.4,6.3-4.9,10.5-9.4,14.5c-2.2,1.9-4.2,3.9-6,6.1c-1.7,2.2-3.2,4.5-4.5,7c-5.2,10.4-6.3,22.9-0.6,33.3
										c1.7,3.1,3.7,5.9,5.7,8.8c1.7,2.6,3.3,5.2,4.8,8c2.9,5.6,5.3,11.5,6.9,17.6"/>
								</g>
							</g>
							<g>
								<g>
									<path class="st2" d="M438.2,414.4c-2.2,1.7-2.9,4.6-3,7.3c-0.1,2.4,0.3,4.9,0,7.3c-0.3,2.1-0.9,4.3-1.3,6.4
										c-0.3,1.7-0.8,3.8-0.3,5.5c0.4,1.6,1.8,2.1,3.3,1.8c0.6-0.1,0.9-0.5,1.3-0.9s0.8-0.9,1.2-1.3c1-1,1.9-2.1,2.8-3.3
										c1.8-2.3,3.5-4.7,4.9-7.3c1.2-2.3,2.2-4.8,2.1-7.4c-0.1-2.9-1.6-5.8-3.8-7.6C443.2,413.3,440.5,412.8,438.2,414.4"/>
									<path class="st3" d="M444.7,415.7c1.9,1.6,3.1,3.9,3.4,6.3s-0.6,4.7-1.6,6.8c-1.2,2.4-2.7,4.6-4.3,6.8
										c-1.5,2-3.1,3.8-4.8,5.5c-0.4,0.4-0.5,0.5-1,0.5c-0.3,0-0.6,0-0.9-0.1c-0.5-0.2-0.7-0.6-0.9-1c-0.4-1.5,0-3.3,0.3-4.8
										c0.4-2,0.9-3.9,1.2-5.9c0.2-1,0.3-1.9,0.3-2.9c0-1.3-0.2-2.6-0.2-3.9"/>
								</g>
							</g>
							<g>
								<g>
									<path class="st3" d="M446.3,407.2c3.2,2.5,5.3,6.3,5.9,10.3c0.6,3.5-0.3,7.2-1.3,10.5c-1.1,3.8-2.7,7.5-4.6,11
										c-1.8,3.3-3.8,6.5-6.6,9c-1.1,1-2.3,1.9-3.7,2.5c-0.6,0.3-1.2,0.4-1.9,0.5c-0.5,0.1-0.9-0.2-1.3-0.4
										c-0.5-0.2-0.9-0.5-1.4-0.8c-1.4-0.9-2.5-2.1-3-3.6c-0.5-1.4-0.5-3-0.2-4.4c0.5-3.4,2-6.7,3-10c0.5-1.6,0.9-3.1,1-4.8
										c0.1-2-0.2-3.9-0.2-5.9c-0.1-4.2,0.2-9,2.7-12.5"/>
									<path class="st2" d="M435.9,405.7c-3.6,2.8-4.7,7.5-4.9,11.8c-0.1,2.4-0.1,4.8,0.1,7.3c0.1,1.8,0,3.4-0.4,5.2
										c-0.9,3.6-2.5,7-3.3,10.6c-0.7,3.2-0.5,6.6,2,9c0.7,0.7,1.6,1.3,2.5,1.7c0.5,0.2,0.9,0.5,1.4,0.7c0.4,0.2,0.8,0.1,1.2,0.1
										c1.5-0.2,2.9-0.9,4.1-1.8c3.1-2.2,5.4-5.3,7.3-8.5c2.2-3.6,4-7.5,5.3-11.5c1.2-3.4,2.3-7.2,2.2-10.8
										c-0.1-4.3-2-8.6-5.1-11.6c-2.6-2.6-6.4-4.6-10-3.3C437.4,404.7,436.6,405.1,435.9,405.7"/>
								</g>
							</g>
							<g>
								<g>
									<path class="st3" d="M443.1,423.2c0.4,0.6,0.7,1.3,0.7,2c0.1,0.9-0.2,1.7-0.6,2.5c-0.5,1-1.4,1.5-2.4,1.3
										c-0.5-0.1-0.9-0.3-1.2-0.7c-0.1-0.2-0.3-0.4-0.4-0.6c0-0.1-0.1-0.3-0.1-0.4s0-0.1,0-0.2V427c0,0.1,0-0.1,0-0.1"/>
									<path class="st2" d="M439.5,421.4c-1.5,1.2-1.5,3.3-1.4,5.1c0,0.1,0,0.2,0,0.4c0,0.1,0,0.1,0,0.2c0,0,0,0.2,0,0.1
										c0,0.2,0,0.4,0.1,0.6c0.1,0.4,0.3,0.7,0.5,1c0.4,0.6,1,1,1.6,1.2c1.4,0.4,2.9-0.1,3.6-1.3c1-1.7,1.2-3.9,0.2-5.6
										c-0.5-0.8-1.2-1.5-2.1-1.9C441.2,420.6,440.3,420.8,439.5,421.4c-0.2,0.2-0.2,0.5,0,0.7"/>
								</g>
							</g>
							<g>
								<g>
									<path class="st2" d="M278,360.9c-1.1,2.7-2.2,5.4-3.2,8c-0.6,1.4-1.1,2.8-1.7,4.1c-0.5,1.2-1.1,2.4-1.4,3.6
										c-0.8,3.1,1.6,6.1,4.7,6.2c1.6,0.1,3.1-0.7,4-2c1.4-1.8,2.5-3.9,3.4-6.1c1.6-4,2.6-8.9,1.7-13.3c-0.4-1.7-1.8-2.9-3.5-3.1
										C280.2,358.3,278.6,359.3,278,360.9"/>
									<path class="st3" d="M282.1,359.4c1.4,0.2,2.3,1.3,2.5,2.6c0.7,3.9-0.1,8.1-1.5,11.8c-0.7,1.9-1.7,3.8-2.8,5.5
										c-0.9,1.3-1.9,2.4-3.5,2.5c-2.8,0.1-4.9-2.5-4.1-5.1c0.4-1.3,1-2.5,1.5-3.7c0.5-1.3,1-2.6,1.6-3.9"/>
								</g>
							</g>
							<g>
								<g>
									<path class="st3" d="M550.2,434.9c-4.5-14.9-8.8-30-14.2-44.6c-4.8-12.9-10.9-25.6-19.9-36.1c-8.6-10.2-19.7-18-31.9-23.4
										c-11.9-5.3-24.3-7.9-37.1-9.6c-7.5-1-14.5-3.3-18.6-10.1c-3.4-5.6-4.6-12.3-5.8-18.6c-2.5-12.3-6.3-24-12.7-35
										c-11.8-20.1-30.8-36.6-53.3-43.5c-5.3-1.6-10.9-2.7-16.4-3.1c-3.3-0.3-6.6-0.1-9.9-0.6c-3.9-0.6-6.8-2.4-9.3-5.4
										c-3.5-4.3-5.7-10.1-10.1-13.7c-2.2-1.8-4.8-2.8-7-4.6c-2.8-2.4-5-5.3-6.6-8.6c-3-6.1-4.6-12.5-3.5-19.3
										c1-6,3.8-11.6,8.1-15.9c4.4-4.4,10.4-6.8,15.3-10.6c5.1-4,9.5-8.9,13.2-14.3c4-6,6.2-12.7,9.3-19.1
										c2.9-6.1,7.2-11.1,13.2-14.3c11-6,24.2-5.8,36.4-6.7c15.8-1.1,31.5-3.8,46.7-8.2c12.6-3.6,25.1-8,36.4-14.7
										c9.8-5.8,18.9-13.3,25.4-22.7c3.2-4.7,5.7-9.9,7.3-15.4c1.8-6.2,2-12.6,2.2-19"/>
									<path class="st2" d="M510.8-24.1L510.8-24.1c-7.1,11.9-2.9,26.9-6.5,39.8c-3.3,11.9-11,22-20.4,29.7
										c-9.8,8-21.2,13.7-33,17.9c-15.2,5.4-31,9.3-47,11.5c-13.2,1.8-26.9,1.2-40,4.1c-5.5,1.2-10.9,3.3-15.5,6.7
										c-5.2,3.8-8.4,9.1-10.9,14.9c-2.8,6.5-5.5,12.9-9.7,18.7c-4.2,5.8-9.5,10.8-15.4,14.7c-4.9,3.2-9.7,5.5-13.4,10.1
										c-3.5,4.3-5.8,9.6-6.5,15.1c-1.6,11.4,3.7,24.1,13.4,30.5c2.4,1.6,4.5,2.5,6.3,4.8c2,2.4,3.6,5.3,5.4,7.9
										c3.2,4.7,6.7,8.4,12.6,9.4c6.2,0.9,12.4,0.5,18.6,1.7c6,1.2,11.9,3.1,17.4,5.6c11.1,5,21,12.4,29.3,21.3
										c8.8,9.4,15.8,20.5,20.5,32.5c2.4,6.2,4,12.6,5.3,19.1c1.2,6,2.3,12.2,5,17.7c2.5,5.2,6.6,9.1,12.1,11
										c6.3,2.2,13.3,2.3,19.8,3.5c13.6,2.6,26.9,7.3,38.5,14.8c12.2,7.8,21.8,18.6,28.8,31.2c7.2,13,11.9,27.2,16.3,41.4
										c10.1,32.8,20,65.6,30,98.4c2.5,8.2,5,16.4,7.5,24.6"/>
								</g>
							</g>
							<g>
								<g>
									<path class="st6" d="M525-28.6c-0.6-1.3-1.2-2.7-1.8-4c0-0.1-0.2,0-0.2,0.1c0.6,1.4,1.2,2.7,1.8,4
										C524.8-28.4,525-28.5,525-28.6L525-28.6z"/>
								</g>
							</g>
							<g>
								<g>
									<path class="st2" d="M520.7-24.7L520.7-24.7c-7.1,12.8-9.7,28-7.5,42.5c1.2,8.1,3.9,16,3.5,24.3
										c-0.3,6.3-2.6,12.3-6.3,17.3c-7.5,10.2-19.6,15.7-31.9,17.7c-15.8,2.6-32,1.3-47.4,6.7c-14.8,5.3-29,14.9-45.3,13.7
										c-3.2-0.2-6.2-1.3-9.4-0.3c-2.5,0.8-4.7,2.5-6,4.9s-1.6,5.1-0.9,7.7c1,4,2.4,7.9,3,12c1,6.6-0.4,12.9-5.8,17.2
										c-4,3.2-9,5-13.6,7.2s-9.2,5-11.9,9.5c-3.1,5.1-3.7,11.7-2,17.3c2.1,6.8,7.7,10.8,13.4,14.4c6.4,4.1,13.1,7.8,19,12.6
										c10.4,8.5,17,20.6,25.9,30.5c2.4,2.7,5.8,5.3,8.6,7.7"/>
									<path class="st3" d="M391.7,221.2c-4-5.2-7.7-10.5-12-15.4c-4.6-5.2-10-9.3-15.8-13c-3.2-2.1-6.5-4-9.8-6.1
										c-3-1.9-6.2-3.8-8.8-6.4c-4.8-4.7-6.5-11.6-5.1-18.1c1.3-5.7,5-9.8,9.9-12.7c8.4-4.9,20.2-7.2,23.4-17.9
										c2.2-7.4-0.9-14.9-2.7-22.1c-1.6-6.5,4-12,10.4-10.9c7.5,1.3,14.9,0.5,22.2-1.8c7.4-2.3,14.3-5.8,21.5-8.8
										c7.4-3.2,15-5.4,23-6.4c7.9-1,15.9-1.2,23.8-2.1c6.8-0.7,13.5-1.9,19.9-4.5c5.4-2.2,10.5-5.4,14.8-9.4
										c4.1-3.9,7.5-8.6,9.4-13.9c2.4-6.6,2.2-13.6,0.9-20.4c-1.4-7.9-3.4-15.5-3.5-23.5c0-7.4,1.1-14.8,3.4-21.9"/>
								</g>
							</g>
							<g>
								<g>
									<path class="st2" d="M399,232.1c2.1,2.2,5.2,5.2,7.9,6.6c0.9,0.5,2.2,1,3.2,0.5c1.1-0.6,1.6-2.3,1.3-3.4
										c-0.3-1.4-1.8-3-2.6-4.2c-2.3-3.6-4.6-7.1-7-10.7c-6.6-9.9-13.3-19.7-20.3-29.2c-3.3-4.4-6.6-8.8-10.1-13
										c-3.2-3.8-6.1-7.9-4.2-13c1.6-4.2,5.4-7.4,8.9-10c3.6-2.7,7.4-5,11-7.6c3.3-2.5,5.1-5.1,5.1-9.5c0-3.4-0.9-6.8-1.9-10
										s-2.9-6.6-3.2-9.9c-0.6-6.6,4.7-13.7,11.1-15c3.3-0.7,6.9-0.2,10.3-0.4c3.5-0.2,6.9-0.7,10.3-1.3
										c7.4-1.3,14.7-3.4,21.5-6.4c3.5-1.5,7-3.3,10.2-5.4c2.7-1.8,5.7-4,9-4.6c2.7-0.5,3.8,1.5,3.2,4c-0.4,1.7-1.8,3.4-2.9,4.8
										c-1.8,2.4-4.1,4.4-6.5,6.2c-10.1,7.4-23.4,11-35.8,11.3c-2.7,0.1-5.5,0-8.2-0.4c-3.1-0.5-6.4-1.4-9.1,0.8
										c-5,4-4.2,11.8-2.8,17.1c1.1,4.3,2.8,8.6,2.5,13.2c-0.3,3.9-2.1,7.7-4.9,10.5c-2.6,2.6-5.9,3.6-8.8,5.7
										c-2.4,1.7-4.3,4.1-5.4,6.8c-2.8,6.8,0.5,13,3.9,18.9c4.1,7.3,9.1,14.1,14.1,20.8c5.2,7,10.4,13.9,15,21.3
										c4.5,7.3,8.5,15,12,22.9c3.6,8.2,6.6,16.6,9.1,25.2c2.1,7.4,3.1,15.6,7.3,22.2c4.1,6.7,12,9.6,18.7,12.9
										c7.6,3.8,15.3,7.4,22.9,11.3c15.3,7.8,30.3,16.4,43.2,27.8c11.5,10.2,21.3,22.7,27.7,36.8c3.3,7.2,5.6,14.7,6.8,22.5
										c1.4,9,0.6,17.9,0.4,26.9c-0.5,17.4,4.8,33.7,12.4,49.2c3.7,7.4,7.8,14.6,12,21.7c0.4,0.6,1,0.3,0.8-0.1"/>
									<path class="st3" d="M565.6,458.3c-2.2-8.9-2.7-17.8-2.3-27c0.4-8.4,0.6-16.7-0.9-25.1c-5.5-31-27.9-55.6-53.7-72.2
										c-14.6-9.3-30.3-16.6-45.8-24.3c-7.3-3.6-16.1-6.8-20.3-14.3c-4-7.2-5-15.9-7.3-23.7c-4.9-16.4-12-32.2-21.1-46.7
										c-9.1-14.6-21-27.4-29.2-42.5c-1.9-3.5-4-7.2-4-11.3c0-3.6,1.6-7.1,4.1-9.7c2.4-2.5,5.7-3.4,8.4-5.4c2.8-2,5-4.7,6.3-7.9
										c3.2-7.5-0.4-14.5-1.9-21.9c-0.7-3.7-0.6-7.8,1.3-11.1c2.5-4.2,6.7-3,10.8-2.5c11.5,1.5,24-1.1,34.5-5.8
										c5.3-2.3,10.4-5.4,14.4-9.7c2.1-2.2,4.8-5.2,5.1-8.4c0.9-10.8-16.1,1.7-18.8,3.2c-13.2,7-28.6,10.4-43.5,10.2
										c-6-0.1-11,2.8-13.8,8.1c-1.4,2.6-2.3,5.4-2,8.4c0.3,3.3,2.1,6.4,3.1,9.5c1.6,5,4,12.6-0.3,16.9c-2.9,2.9-6.8,5-10.1,7.4
										c-6.1,4.2-15.2,10.8-12.8,19.5c1.3,4.6,5.3,8,8.1,11.6c3.8,4.7,7.3,9.6,10.9,14.5c6.7,9.4,13.2,19,19.5,28.6
										c1.8,2.7,3.6,5.4,5.3,8.2c0.1,0.2,0.8,1.5,0.7,0.9c0.1,0.5,0,1.2-0.1,1.6"/>
								</g>
							</g>
							<g>
								<g>
									<path class="st3" d="M576.1,446.6c-5.3-23.9-7.3-48.6-14.6-72.1c-3.2-10.4-7.5-20.6-14-29.4c-5.9-8.1-13.6-14.4-22.5-19
										c-17.5-9-38.3-11.3-54.6-22.8c-9.3-6.5-15.1-15.8-17.5-26.8c-2.7-12.2-2.2-25.2-7.1-36.8c-3.9-9.2-11.5-15.9-19.1-22.1
										c-7.4-6.1-15.8-12.2-19.9-21.2c-10.3-22.6,13.8-38.6,25.5-54.2c7.6-10.1,9.8-23.7,19.2-32.4c9.2-8.4,22.2-10.2,34.1-11.7
										c10.4-1.3,21.1-2.8,30.2-8.3c9.4-5.6,15-15,15.3-26c0.4-14.1-6.6-26.9-11.6-39.7c-5.1-13.2-8.5-29.4,2.1-40.8"/>
									<path class="st2" d="M537.9-21.5l1.9-1.2c-9.7-4.4-20.6,5.5-24.1,13.9c-5.2,12.4-0.1,26.5,4.8,38.2c5.6,13.5,13,29,8,43.9
										c-3.9,11.7-14.8,18.2-26.2,21.2c-11.1,3-22.8,2.8-33.9,5.7c-5.2,1.4-10.3,3.4-14.6,6.5c-5,3.6-8.5,8.4-11.3,13.8
										c-3,5.9-5.1,12.1-8.7,17.6c-3.1,4.8-6.9,9.1-10.8,13.2c-6.9,7.4-14.9,15-18.2,24.9c-3.1,9-1.3,18.6,4.3,26.2
										c5.8,7.9,14.2,13.5,21.5,19.9c3.9,3.4,7.6,7,10.5,11.3c3.6,5.2,5.5,11.2,6.7,17.4c2.4,12.4,2.1,25.6,7.8,37.1
										c9,18.1,29,24.3,46.8,30.3c10,3.4,20.2,6.9,29.1,12.8c9.4,6.3,16.5,15.2,21.6,25.2c10.9,21.5,13.8,46.2,17.9,69.7
										c5,29.5,13.6,58,23.5,86.2c2.5,7.3,5.2,14.5,7.8,21.7"/>
								</g>
							</g>
							<g>
								<g>
									<path class="st2" d="M560-42.9c-12.3,20.6-25.2,43.8-24.3,68.6c0.4,11.2,4.4,21.6,7.3,32.3c2.7,10,5,22.4-3.5,30.5
										c-5.8,5.5-14.1,7.4-20.3,12.5c-2.5,2.1-4.4,4.9-4.9,8.3c-0.8,5.3,2.9,10.8,0.3,15.8c-4.3,8.4-16.5,5.8-24,8.2
										c-7,2.3-12.7,8.6-8.7,16.1c2.1,3.9,5.9,6.5,7.9,10.3c2.5,4.6,0.8,9.1-3.1,12.2c-6.6,5.4-14.8,7.5-19,15.5
										c-4,7.8-3.8,17.1-2.4,25.5c1.7,9.9,5.5,19.2,9.8,28.3c8.8,18.3,20.9,37,39,47.1c4.2,2.4,8.7,4.2,13.4,5.4
										c5.5,1.4,11.4,2,16.3,5c5.3,3.3,8,9,9.8,14.8c1.8,5.9,3.1,12.1,4.6,18.1c13.4,54.4,26.6,108.7,40.2,163
										c1.7,6.7,3.3,13.3,5,20c0.4,0.2,0.9,0.1,0.9-0.3"/>
									<path class="st3" d="M564.7,352.3c-3.1-12.8-5.8-25.7-9.5-38.3c-1.4-4.6-3.2-9.4-6.5-13c-3.4-3.8-8.2-5.6-13-6.8
										c-5.1-1.3-10.2-2.2-15.1-4.3c-4.6-2-8.9-4.6-12.9-7.6c-8.7-6.7-15.7-15.3-21.6-24.5c-5.9-9.2-11-19.2-14.9-29.4
										c-3.5-9.1-5.9-19.1-5.1-28.9c0.3-4.6,1.5-9.2,4-13.1c2.6-4,6.4-6.5,10.5-8.8c5.9-3.4,13.8-7.9,11.7-16
										c-1.9-7.6-16-14.8-7.6-23.3c6.4-6.5,16.5-3.9,24.3-6.9c3.2-1.3,6.2-3.4,7.4-6.7c2-5.1-1.3-10.1-0.6-15.2
										c1.1-8.3,10.9-11.4,17.3-14.8c7.3-4,12.7-9.4,13.8-18c1.3-10.6-3-21.2-5.9-31.2c-3.5-12-4.8-23.7-2.3-36.1
										c2.5-12.5,7.7-24.3,13.6-35.5"/>
								</g>
							</g>
							<g>
								<g>
									<path class="st2" d="M617.8,514.8L617.8,514.8c-23.6-40.9-18.3-90.8-24.5-135.9c-3.1-22.1-9.2-43.3-21.1-62.3
										c-11.3-18.2-25.7-34.2-37.3-52.1c-11-17.1-20.9-38.9-16.4-59.7c1.1-5,3.1-10.3,7.1-13.8c4.3-3.8,9.8-3.7,15-2.3
										c7.5,2,17.1,7.6,24.4,2.1c6.4-4.8,5.7-13,3.9-19.9c-2.3-9-6.8-18.2-5.9-27.7c1.1-10.9,12.1-16.2,15.2-26.2
										c3.5-11.5-4.6-22.4-10.8-31.3c-6.9-10-12.8-22-12.4-34.5c0.2-5.9,2-11.6,5.6-16.2c3.6-4.7,8.6-8.1,12.9-12.1
										c7.8-7.1,11.9-16.3,12.1-26.8c0.3-11.3-3.3-22.5-7.6-32.8c-2.2-5.2-4.7-10.2-7.3-15.2"/>
									<path class="st3" d="M582.3-17.7c2.4,11.1,2.3,23.5-4.5,33.1c-6.5,9.2-17.7,13.9-22.3,24.5c-4.3,10-2.2,21.4,1.8,31.1
										c2.2,5.4,5.2,10.6,8.5,15.4c3.7,5.4,7.7,10.8,9.9,17s1.9,12.6-1.7,18.1c-2.8,4.3-6.7,7.8-9.5,12.2c-5,8-3.3,17.2-0.8,25.8
										c2.2,7.6,7.5,18.2,3.5,26.1c-5.3,10.4-17.5,4-25.6,1.7c-4.2-1.2-8.7-1.9-12.8-0.2c-3.8,1.5-6.7,4.7-8.7,8.2
										c-4.8,8.7-4.8,19.3-3.5,28.9c1.4,9.8,4.8,19.2,9.3,28.1c9.7,18.9,23.9,35,36.3,52.1c6.2,8.5,12,17.4,16.5,27
										c5,10.4,8.3,21.4,10.6,32.6c4.8,23.3,5.5,47.3,7.4,70.9c1.8,22.3,4.4,45,13.1,65.7"/>
								</g>
							</g>
							<g>
								<g>
									<path class="st3" d="M608.6-27.9c-1,11-4.3,21.8-10,31.3c-6.3,10.4-13.5,19.7-14.2,32.3c-0.7,12,3.9,23.8,10.1,33.9
										c6.6,10.8,15.4,19.5,23.7,29c4.2,4.8,8,10.4,9,16.9c0.8,5.4-0.2,12-4.6,15.7c-7.4,6.2-18.9,1-26.3,7.4
										c-8.5,7.3-2.8,20,4,26.1c4.3,3.9,9.4,6.8,13.5,10.9c3.8,3.9,6.8,8.5,9,13.5c4.2,9.7,4.8,22.1-4.1,29.4
										c-8,6.6-19.5,5.6-29,8.3c-9.3,2.6-16.1,8.9-18.3,18.5c-2.2,9.8-0.1,20.5,4.1,29.5c5.2,11.2,13.9,20.3,20.6,30.7
										c7.5,11.8,10.7,24.7,11.3,38.5c0.6,13.5-0.7,27-1.2,40.4c-0.5,13.3-0.7,26.5-0.2,39.8c0.9,24.9,4.3,50,13.6,73.3"/>
									<path class="st2" d="M628.4,514.1L628.4,514.1C602.7,466.6,607,411,608.8,359c0.5-13,0.2-26.3-3.8-38.8
										c-4-12.1-12-21.9-19.3-32.1c-6.9-9.6-12.7-20-13.5-32.1c-0.8-11.4,3.4-22.5,14.7-26.7c9.2-3.4,19.6-2.5,28.5-6.8
										c8.5-4.2,12.7-13,12-22.3c-0.8-9.7-5.7-19.1-12.4-26c-8-8.2-23-14-21-27.9c1.9-12.5,17.4-8.1,25.8-11.5
										c9-3.6,10.8-14.6,8.4-23.1c-3.4-11.6-13.9-19.5-21.4-28.4c-8.5-10.1-16.1-21.6-19.2-34.5c-1.5-6.4-1.8-13.1-0.4-19.6
										c1.5-6.5,4.8-12.2,8.4-17.7c6.1-9.5,11.2-18.8,13.5-29.9c4.2-19.9,0.8-42-10-59.4c-2.6-4.2-5.7-8.1-9.3-11.6"/>
								</g>
							</g>
							<g>
								<g>
									<path class="st2" d="M640.6,529.5c-23.2-43.7-16-95.7-15.9-143.2c0-24.9-1.8-49.9-9.3-73.8c-1.9-6-4.2-11.8-6.6-17.7
										c-2.5-6.2-4.6-12.6-4-19.3c0.7-7.3,4.5-13.6,9.6-18.8c10.4-10.5,24.3-16.7,34.6-27.3c4.6-4.8,8.3-10.5,9.3-17.1
										c1.6-10.1-3-19.1-8.2-27.4c-5.8-9.2-11.9-18.5-10.8-29.9c0.5-5.4,3-10.2,8-12.6c4.3-2,8.6-2.9,11.9-6.6
										c5.1-5.7,5.7-14,4.5-21.2c-1.3-8.4-5.2-16.8-11.3-22.9c-7.6-7.6-17.2-12.7-25.7-19.1c-9.8-7.3-17.3-16.3-20.4-28.3
										c-6.6-25.1,4.1-49.8,17.5-70.6c3.4-5.4,7-10.6,10.7-15.8c0-0.2-0.5-0.5-0.7-0.2"/>
									<path class="st3" d="M603.3,24.4c-0.7,10.9,1,22.2,6.4,31.8c5.3,9.4,13.9,16,22.7,21.9s18.6,11.7,24.3,21
										c4.8,7.9,7.7,18.2,5.7,27.5c-0.9,4.2-3.1,8.1-6.6,10.6c-4.1,2.9-9.5,3.2-13.2,6.8c-6.5,6.3-5.4,17-2.9,24.8
										c3.5,10.7,11.8,18.9,15.6,29.5c2.9,8.3,2,17-2.8,24.3c-8.3,12.4-23,19.1-34.2,28.3c-5.3,4.4-10.3,9.5-13,15.9
										c-3.9,9.1-2,18.5,1.4,27.4c4.9,12.7,9.4,25.3,12,38.7c2.4,12.5,3.5,25.2,4,37.9c0.9,24.9-0.7,49.7-0.5,74.6
										c0.2,23.5,2.1,47.4,10.3,69.6"/>
								</g>
							</g>
							<g>
								<g>
									<path class="st3" d="M645.5,507.1c2.1-15.5,2.2-31.3,0.8-46.9c-0.7-7.7-1.8-15.4-3.2-23c-1.4-7.4-3.3-14.7-4.5-22.1
										c-0.5-3.6-0.9-7.3-0.9-11c0-2.5-0.2-5.5,2-7.2c1.5-1.1,3.5-1.4,5.2-0.8c2.6,1,3,3.8,3.6,6.2c1.8,7.5,2.7,15.3,3.5,23
										c0.9,8,1.9,16,2.8,24.1c1.9,16,3.7,32.1,5.6,48.1"/>
									<path class="st2" d="M662.1,503.2c-1.9-16.4-3.8-32.8-5.8-49.3c-1-8.2-1.9-16.4-2.9-24.6c-0.9-8-1.7-16-3.3-23.9
										c-0.4-1.9-0.8-3.8-1.3-5.7c-0.3-1.1-0.7-2.2-1.5-3.1c-1.3-1.5-3.3-2.1-5.3-1.9c-2,0.3-3.8,1.5-4.6,3.3
										c-0.6,1.2-0.6,2.6-0.7,3.9c-0.1,1.8-0.1,3.6,0,5.3c0.4,7.6,2.1,15.2,3.7,22.6c1.7,7.7,3.1,15.5,4,23.3
										c1,7.9,1.5,15.9,1.6,23.9s-0.3,16-0.8,24.1c-0.1,1.9-0.3,3.8-0.5,5.8"/>
								</g>
							</g>
							<g>
								<g>
									<path class="st2" d="M680.1,512.2L680.1,512.2c-5.5-9.7-7.7-20.9-9-31.9c-1.4-11.3-1.9-22.7-4.1-33.9
										c-1.2-6.2-3.2-12.2-4.9-18.3c-1.5-5.7-2.4-11.5-2.8-17.4c-0.7-11.1-0.1-22.2-1.8-33.2c-0.8-5.1-2.2-10.2-4.6-14.8
										c-1.2-2.3-2.6-4.7-4.7-6.3c-2.1-1.5-4.5-1.2-6.3,0.6c-3.6,3.8-6.1,8.9-7.9,13.7c-1.9,5.2-2.9,10.6-3.5,16.1
										c-1.3,12.7,0.5,25.3,1.8,37.9c0.7,6.6,1.2,13.3,1.2,20c0,6.6-0.4,13.3-0.3,19.9c0.2,6.1,0.9,12.2,2.6,18.1
										c1.5,5.3,3.5,10.4,5.7,15.4c4.3,10.1,9.4,20.2,11.3,31.1c0.5,2.7,0.7,5.4,0.8,8.1"/>
									<path class="st3" d="M646.6,506.5c-4.3-10-9.2-20-11.1-30.8c-2.2-12.9-0.2-26.1-1-39.1c-0.7-13.1-3.1-26.1-3.3-39.2
										c-0.1-10.9,1.3-22.3,6.4-32.1c1.2-2.4,2.7-4.6,4.4-6.7c0.9-1,1.9-2.2,3.4-2.1c1.4,0.1,2.6,1.1,3.5,2.1c1.8,2,3,4.5,4.1,6.9
										c1,2.4,1.8,4.9,2.5,7.5c2.5,10.6,2.1,21.6,2.5,32.4c0.2,5.4,0.6,10.9,1.6,16.3c1.2,6.2,3.3,12.2,4.9,18.4
										c3,11,3.8,22.4,4.9,33.7c1.1,10.8,2.5,21.7,6.7,31.8"/>
								</g>
							</g>
							<g>
								<g>
									<path class="st2" d="M798.7,546.3c-11.2-28.2-16.8-58.6-16.8-89c0-7.6,0.3-15.1,1-22.6c0.7-7.7,2-15.4,3.1-23.1
										c2-14,2.9-28.3-3.2-41.4c-9.6-20.7-31.2-31.8-48.4-45.3c-20.6-16.3-34.7-39.4-41.2-64.7c-1.7-6.6-2.9-13.4-3.5-20.2
										c-0.7-7.5-0.6-15.1-0.6-22.6c0-7.7-0.1-15.4-1.4-23c-0.7-4.3-2-8.4-6.5-10.1c-3.3-1.2-7.1-0.5-9.8,1.6
										c-1.4,1.1-2.5,2.6-3,4.3c-0.8,2.4-0.3,4.8-0.1,7.3c1.1,12.8-0.1,26.9-8.6,37.2c-6.4,7.7-18.8,12.9-19.9,24
										c-0.5,5.7,2.7,10.7,5.1,15.6c1.2,2.6,2.3,5.4,2,8.4c-0.3,3.2-2.4,5.6-4.8,7.6c-2,1.8-4.3,3.4-6,5.5
										c-1.3,1.7-2.3,3.5-3.1,5.5c-1.6,4.3-1.8,8.9-1,13.4c1.4,8.8,7,17.3,16.3,18.9c3.4,0.6,7,0.6,9.9,2.6
										c2.7,1.9,4.4,4.9,5.5,7.9c2.5,6.7,3.6,14,5.1,21c3.6,16.2,7.2,32.3,10.8,48.5c7.2,32.2,14.2,64.4,21.6,96.6
										c1.8,7.8,3.6,15.7,5.5,23.5c-0.1,0.3,0.4,0.2,0.3-0.1"/>
									<path class="st3" d="M686.3,438.2c-3.5-15.8-7-31.6-10.5-47.5c-1.8-8.1-3.6-16.2-5.4-24.3c-1.6-7-2.7-14.4-5-21.2
										c-1.7-5.2-4.6-10.3-10.2-11.9c-3.1-0.9-6.3-0.8-9.4-1.8c-2.1-0.7-4.1-1.9-5.7-3.4c-6.7-6.3-8.9-17.3-6-25.9
										c0.8-2.2,1.9-4.4,3.5-6.2c1.8-2,4.1-3.6,6.1-5.4c4-3.7,5.5-8.4,3.7-13.6c-1.8-5.4-5.9-10.2-6.3-16
										c-0.5-5.8,3.1-10.4,7.2-14.1c4.1-3.7,8.7-6.9,12.3-11.1c3.8-4.5,6.3-9.9,7.8-15.5c1.6-6.1,2-12.5,1.7-18.8
										c-0.2-4.7-2.2-10.6,2-14.2c2.8-2.4,7.2-2.8,10.3-0.6c1.8,1.3,2.7,3.2,3.1,5.3c0.8,3.9,1.3,7.8,1.5,11.8
										c1,14.7-0.4,29.4,1.9,44c3.8,25.1,15.1,49.5,32.8,67.9c15.7,16.3,37.5,25.9,52,43.5c8.3,10.1,12.2,22.2,12,35.3
										c-0.1,7.9-1.4,15.8-2.6,23.6c-1.1,7.2-2,14.4-2.5,21.7c-2.1,29.4,1.1,59.3,9.5,87.5"/>
								</g>
							</g>
							<g>
								<g>
									<path class="st2" d="M768.3,561.8c-7.2-22.3-11.6-45.6-13.2-69c-0.8-11.7-0.9-23.5-0.3-35.2c0.6-11.1,2-22.1,3.2-33.2
										c2.3-20,4.1-42.1-5.8-60.5c-8.9-16.5-25.7-25.6-40.2-36.3c-7.8-5.8-14.9-12.3-20.6-20.2c-5.8-8.2-10.2-17.5-13.1-27.1
										c-1.5-4.9-2.5-9.9-3.3-14.9c-0.4-2.6-0.6-5.3-0.8-7.9c-0.1-2.4,0.1-4.9-0.2-7.2c-0.4-2.9-4.2-4.1-6.1-1.9
										c-0.5,0.6-0.7,1.3-1,1.9c-0.5,1.4-1,2.9-1.5,4.4c-0.9,2.8-1.7,5.6-2.4,8.4c-2.9,11.2-4.5,22.8-5.9,34.3
										c-0.3,2.9-0.7,5.8-1,8.8c-0.3,2.9-0.7,5.9-0.6,8.8c0.2,4.8,2.2,8.9,5.3,12.6c3,3.6,6.7,6.5,9.9,10s6,7.4,8.5,11.5
										c5.1,8.4,8.7,17.6,11.5,26.9c6.2,20.7,9,42.4,12.6,63.7c4.1,24.6,8.4,49.2,12.6,73.8c1,5.9,2,11.9,3.1,17.8
										c0.2,0.6,1.1,0.4,1-0.2"/>
									<path class="st3" d="M708.1,458.4c-2-12-4-24-6-36c-1.7-10.2-3.4-20.4-5.5-30.5c-4-18.3-9.7-37-21.5-51.9
										c-2.9-3.6-6.2-6.8-9.5-10c-3.4-3.3-6.7-7-7.8-11.8c-1.3-5.6,0.1-11.8,0.7-17.4c0.7-5.9,1.4-11.8,2.3-17.6
										c0.9-5.7,1.9-11.4,3.2-17c0.6-2.7,1.3-5.5,2.1-8.1c0.8-2.7,1.5-5.6,2.7-8.1c0.8-1.7,3.3-1.8,3.8,0.2c0.3,1.1,0,2.4,0.1,3.5
										c0,1.4,0.1,2.7,0.2,4.1c0.3,4.8,1,9.6,1.9,14.4c3.9,18.8,13.2,36.9,27.7,49.7c13.4,11.9,30.4,19.6,42.1,33.5
										c6.3,7.5,10.3,16.5,12.1,26.2c1.9,10.2,1.7,20.7,0.8,31c-0.9,10.5-2.4,21-3.5,31.6c-1.1,11.4-1.6,22.8-1.4,34.3
										c0.4,22.8,3.5,45.6,9.2,67.6"/>
								</g>
							</g>
							<g>
								<g>
									<path class="st2" d="M752.7,549c-3.5-13.3-6.6-26.7-9-40.2s-4.2-27.2-5-40.9c-0.8-13.8-0.4-27.6-0.6-41.4
										c-0.2-13.4-1-26.9-4.4-39.9c-1.6-6-3.7-11.9-6.4-17.5c-1.3-2.7-2.8-5.4-4.5-8c-1.3-2.1-2.7-4.2-4.7-5.7
										c-6.2-4.7-15.9-0.9-17.1,6.9c-0.4,2.6,0.2,5.4,0.5,8c0.5,3.4,1,6.8,1.5,10.2c1.1,6.7,2.4,13.3,4,19.9
										c1.5,6.6,3.3,13.2,5.3,19.7c2,6.6,4.3,13.2,6.5,19.8c4.3,12.9,7.8,26,10.3,39.4s4.1,27.1,4.7,40.7
										c0.2,3.4,0.2,6.7,0.3,10.1c0.2,0.5,1,0.5,1,0"/>
									<path class="st3" d="M732.5,490.3c-1.8-13.2-4.6-26.2-8.3-39c-3.8-13-8.6-25.6-12.2-38.6c-3.6-12.9-6.3-26-8.2-39.2
										c-0.2-1.7-0.5-3.4-0.7-5.1c-0.2-1.4-0.5-2.9-0.5-4.3c0-1.9,0.5-3.7,1.7-5.3c2-2.8,5.7-4.3,9.1-3.8c4.8,0.8,7.3,5.5,9.6,9.4
										c3.1,5.2,5.6,10.8,7.5,16.6c4.1,12.4,5.5,25.6,5.9,38.6c0.5,13.5,0,27.1,0.4,40.7c0.4,13.4,1.8,26.8,3.8,40
										c2.1,13.3,4.8,26.4,8,39.5"/>
								</g>
							</g>
							<g>
								<g>
									<path class="st3" d="M746,31c4,25.7,1.9,52.6-7.3,77c-2.7,7.2-5.9,14.2-8.2,21.4c-2.3,7.1-3.5,14.5-3.5,21.9
										c-0.1,14.7,4.2,29,9.9,42.4c11.9,27.6,31.4,51.4,40.9,80.2c2.3,6.9,4,14.1,4.6,21.4c0.7,7.2,0.7,15.2-1.3,22.2
										c-4.2,14.3-23.9,10.9-33.8,5.3c-25.9-14.5-32.2-46.6-35.7-73.6c-3.5-27.6-5.1-57.6-22.4-80.7c-3.9-5.2-8.4-10.1-11.7-15.8
										c-3.5-6.1-4.9-12.7-3.8-19.6c2-12.6,9.4-25.1,3.8-37.8C673,85,662.2,79.5,653.6,73.2c-8.5-6.2-14.5-14.4-18-24.3
										c-6.8-19.1-4.6-42.5,7.3-59.2"/>
									<path class="st2" d="M652.5-20.7L652.5-20.7c-16.8,11.8-23.4,34.1-21.8,53.9c0.8,10.1,3.7,20.1,9.3,28.6
										c2.7,4.2,6,7.9,9.9,11c4.5,3.7,9.5,6.7,14.2,10.2s9.2,7.6,11.7,12.9c3.1,6.4,2.4,13.5,0.7,20.2c-1.7,6.7-4.2,13.2-4.8,20.1
										c-0.5,6.5,1.3,12.7,4.6,18.2c3.3,5.6,7.6,10.4,11.5,15.5c4.4,5.8,7.8,12.2,10.4,19c5.3,13.7,7.7,28.5,9.5,43.1
										c3.5,28.4,5.2,60.9,26,82.8c8.3,8.7,19.7,15.5,32,14.9c6-0.3,12.5-2.1,15.6-7.8c1.6-3,2.2-6.4,2.7-9.8
										c0.5-3.7,0.7-7.4,0.5-11.2c-0.8-30.5-18.2-56.8-32.9-82.3c-7.8-13.6-15.1-27.7-19.3-42.8c-4.3-15.3-4.8-31.1,0.2-46.3
										c2.4-7.4,5.7-14.4,8.4-21.7c2.3-6.2,4.1-12.7,5.5-19.2c2.8-12.8,3.8-26,3.3-39.1c-1-26.1-8.3-52.2-21.9-74.5
										c-3.2-5.2-6.7-10.1-10.6-14.8"/>
								</g>
							</g>
							<g>
								<g>
									<path class="st3" d="M722.3,6.5c5,21.1,6.5,43.1,3.8,64.7c-2.9,23.3-11.5,45.3-15.3,68.4c-1.8,11.2-2.5,22.7-0.6,34
										c1.8,10.7,5.9,20.8,10.7,30.4c4.9,9.7,10.5,19.1,15.4,28.8c5.3,10.5,9.5,21.7,11,33.4c0.3,2,0.6,4-0.7,5.7
										c-0.9,1.1-2.3,1.8-3.8,1.8c-1.6,0.1-3.1-0.6-4-1.9c-0.7-0.9-0.9-2.1-1.3-3.2c-0.5-1.5-1-3.1-1.5-4.6
										c-4-12-8-23.9-12.1-35.9c-8-23.8-16.3-47.6-24-71.5c-3.6-11.3-6.2-22.6-5.2-34.5c0.9-10.3,3.5-20.5,3-30.9
										c-0.2-4.6-1.2-9.2-3.3-13.4c-2.3-4.4-5.8-7.7-9.7-10.7c-3.7-2.9-7.5-5.6-10.8-9c-3-3.1-5.6-6.7-7.9-10.4
										c-9.2-15.5-12-34.7-7.9-52.2"/>
									<path class="st2" d="M661.6-17.4L661.6-17.4c-8,16.1-8.6,35.4-3.1,52.4c2.7,8.3,6.9,16.2,12.8,22.8c3,3.4,6.5,6.3,10.2,9
										c4.3,3.2,8.5,6.6,11.1,11.4c5.1,9.3,3.4,20.7,1.9,30.7c-0.8,5.3-1.6,10.6-1.9,16c-0.3,5.8,0.2,11.6,1.4,17.3
										c2.5,12.2,7.1,24,11.1,35.8c4.2,12.3,8.3,24.7,12.4,37c4.1,12.3,8.3,24.5,12.4,36.8c2.1,6.1,4.1,12.3,6.2,18.4
										c1,3.1,3.3,5.4,6.8,5.3c2.9-0.1,5.5-2,6.3-4.9c0.5-2.1,0-4.4-0.3-6.5c-0.5-2.9-1.1-5.8-1.8-8.7c-3-11.3-8-21.8-13.6-32
										c-5.3-9.8-11-19.4-15.3-29.7c-4.6-10.8-7.2-22.2-7.3-34c-0.1-24.4,8.8-47.6,14-71.1c4.8-21.7,5.5-44,2.3-66
										C724,0.7,717.1-20.7,707-40.5c-2.5-4.8-5.2-9.5-8-14.1"/>
								</g>
							</g>
							<g>
								<g>
									<path class="st3" d="M696.5-18.1c3.1,8.8,5.8,17.8,7.8,26.9c2,9,3.5,18.2,4,27.4c0.5,9.1,0.2,18.3-1.3,27.4
										c-0.4,2.2-0.8,4.5-1.3,6.7c-0.1,0.3-0.2,0.6-0.2,0.9c0,0-0.1,0.5,0.1,0.1c0,0,0,0-0.1,0.1s-0.3,0.3-0.3,0.2
										c0.1-0.1-0.2,0.1-0.3,0.2l-0.1,0.1c0,0,0.1,0,0,0s-0.3,0.1-0.1,0c-0.1,0-0.2,0-0.3,0c0.2,0,0,0-0.1,0s-0.1-0.1,0,0
										c0,0-0.1-0.1-0.2-0.1c-0.1-0.1-0.2-0.1-0.3-0.2c0.2,0.1-0.1-0.1-0.2-0.2c-0.1-0.1-0.2-0.2-0.3-0.3c0-0.1-0.1-0.1-0.1-0.2
										c-0.1-0.1-0.1-0.1,0-0.1c-0.9-1.3-1.5-2.8-2-4.2c-0.8-2.1-1.4-4.3-2-6.4c-1.5-5.2-2.8-10.3-4.6-15.4
										c-1.6-4.5-3.5-9.3-6.6-13c-2.1-2.4-5.1-3.8-6.8-6.6c-1.2-1.9-1.5-4.3-1.7-6.5c-0.2-2.5-0.5-5-0.7-7.6
										C677.9,1.1,677-9,676-19.1"/>
									<path class="st2" d="M674.4-26.5L674.4-26.5c0.8,10.3,1.7,20.6,2.6,31c0.4,5.1,0.8,10.3,1.3,15.4c0.2,2.2,0.6,4.4,1.9,6.3
										c1.1,1.7,2.7,3,4.2,4.2c1.8,1.5,3.3,3.1,4.6,5.1c1.3,2.2,2.4,4.5,3.3,6.8c2,5.1,3.4,10.4,4.9,15.7c0.7,2.3,1.3,4.7,2,7
										c0.6,1.8,1.2,3.7,2.1,5.4c0.6,1.1,1.3,2.4,2.6,2.8c1.2,0.5,3-0.3,3.3-1.6c2.2-9.1,3.1-18.5,3.1-27.8c0-9.4-1-18.8-2.7-28
										c-1.7-9.4-4.2-18.6-7.1-27.6c-2.9-9-6.3-17.9-9.9-26.7c-0.9-2.1-1.8-4.2-2.7-6.3"/>
								</g>
							</g>
							<g>
								<g>
									<path class="st3" d="M685.3-16.1c1.8,6.6,3.7,13.1,5.5,19.7c0.5,1.6,0.9,3.2,1.3,4.8c0.2,0.8,0.5,1.6,0.7,2.3
										c0.1,0.4,0.2,0.9,0.1,1.3c-0.2,1.5-1.8,2.5-3.3,2.4c-0.8-0.1-1.5-0.5-2-1.2c-0.8-1.2-1.4-2.6-2-3.9
										c-1.5-2.8-2.9-5.7-4.2-8.6c-1.4-3.2-2.7-6.6-3.7-10c-0.5-1.7-0.9-3.3-1.2-5"/>
									<path class="st2" d="M675.2-19.4L675.2-19.4c-0.1,3.2,0.6,6.6,1.4,9.6c0.8,3.1,1.9,6.2,3.2,9.2c1.3,3.1,2.7,6.1,4.2,9.1
										c0.8,1.5,1.5,3.1,2.3,4.6c0.5,0.9,1.1,1.7,2,2.1c1.6,0.8,3.6,0.4,4.9-0.9c0.6-0.6,1-1.5,1.1-2.3c0.2-1.3-0.4-2.7-0.8-4
										c-1.9-6.9-3.9-13.9-5.8-20.8c-1.1-3.9-2.2-7.8-3.3-11.6c-1.1-3.9-2.2-7.9-3.4-11.7"/>
								</g>
							</g>
							<g>
								<g>
									<path class="st6" d="M742.1-35.7c4.1,23.3,8.4,46.6,12.7,69.8c4.3,23.1,9.6,46.4,10,70.1c0.5,22-5.8,42.8-8.9,64.4
										c-1.4,9.6-1.9,19.5,0,29.1c1.8,9,5.9,16.9,11.7,24c6,7.3,13.2,13.6,18.9,21.2c5.9,7.9,9.9,17.2,11.8,26.9
										c2,9.9,2,20.2-0.3,30c-2.3,10.2-7.5,19.3-10.3,29.3c-2.9,10.4-2.5,21.2-2.2,31.9c0.3,11.9,0.6,23.9,1,35.8
										c0.6,23.5,1.2,47,1.9,70.4c1.2,39,3.1,80,20.5,115.7c2.1,4.3,4.4,8.5,7,12.5c0.6,1,2.3,0.1,1.6-0.9
										c-21.5-34.4-25.3-76.4-26.8-116.1c-0.9-22.8-1.3-45.6-1.9-68.5c-0.3-11.7-0.6-23.5-1-35.2c-0.3-11.5-1.3-23.2-0.2-34.7
										c1-11,5.8-20.6,9.5-30.8c3.3-8.9,4.8-18.3,4.5-27.8c-0.3-9-2.3-17.9-5.8-26.2c-3.6-8.4-8.9-15.4-15.1-22.1
										c-6.6-7.1-13.8-13.9-18.3-22.5c-4.8-9.2-6.2-19.6-5.8-29.8c0.8-21.2,8.1-41.5,9.6-62.6c1.7-22.9-2.6-45.7-6.8-68
										c-4.3-23-8.6-46.1-13.2-69.1c-1.1-5.7-2.3-11.4-3.4-17.1C742.6-36.3,742-36.1,742.1-35.7L742.1-35.7z"/>
								</g>
							</g>
							<g>
								<g>
									<g>
										<path class="st3" d="M550.3,119.6c-1.8,4.5-2.9,9.3-3.3,14.1c-0.5,6.4,0.4,12.9,2.2,19.1c0.7,2.1,1.4,4.3,1.7,6.5
											c0.4,2.6,0.2,5.3-0.7,7.7c-0.6,1.5-1.4,2.9-2.4,4.1c-0.8,1-1.5,1.9-2.8,2.2c-2.2,0.6-4.7,0.2-6.9-0.2
											c-4.7-0.8-9.2-2.3-14-1.6c-4.2,0.6-7.7,2.9-9.9,6.4c-2.8,4.4-3.5,9.6-3.9,14.6c-0.3,3.3-0.5,6.6-0.8,9.9"/>
										<path class="st2" d="M555.6,110.9c0.8-1.6,1.2-3.4,0.3-5c-0.8-1.4-2.3-2.3-3.9-2.9c-1.7-0.6-3.5-0.9-5.2-1
											c-0.8,0-1.5,0-2.3,0.2c-0.3,0.1-0.5,0.1-0.8,0.2c-0.2,0.1-0.3,0.1-0.4,0.2c-0.1,0-0.4,0.2-0.2,0.1c-3,1.2-6,2.4-8.8,4.1
											c-1.7,1.1-3.4,2.3-4.5,4c-1.4,2.2-1,4.7,0.1,6.9c1.3,2.7,3.3,5,3.8,8c0.5,2.9-0.6,5.7-2.4,8c-1.9,2.4-4.5,4.3-7.2,5.7
											s-5.7,2.3-8.5,3.4c-2.8,1.1-5.5,2.2-8,3.9c-2.3,1.6-4.8,4-5.3,6.9c-0.5,2.8,1.3,5.2,2.9,7.3c0.9,1.2,1.8,2.4,2.5,3.7
											c0.7,1.4,1.1,3,1.1,4.6c0.1,6.9-4.7,12.4-8.9,17.4c-2.1,2.5-4.3,5.1-5.7,8.1c-1.2,2.5-2,5.3-1.9,8.1s0.9,5.4,2.6,7.6
											c1.8,2.2,4.5,4.2,7.5,4.2c2.2,0,4.2-1,5.7-2.6c0.6-0.6,1.1-1.4,1.5-2.1c0.4-0.9,0.5-2,0.6-3c0.9-6.5,0.9-13.1,1.9-19.5
											c0.7-4.5,2.4-9.2,6-12.2c3.7-3,8.7-3.3,13.2-2.5c2.3,0.4,4.5,1,6.8,1.4s4.9,0.8,7.2,0.2c1-0.2,1.8-0.7,2.5-1.4
											c1.2-1.3,2.2-2.7,3-4.2c1.2-2.4,1.8-5.1,1.6-7.8c-0.1-2.3-0.7-4.6-1.4-6.8c-1-3.2-1.8-6.4-2.3-9.7
											c-0.9-5.9-0.7-11.8,0.7-17.6c1-4.2,2.5-8.2,4.5-12.1C554.3,113.4,554.9,112.1,555.6,110.9"/>
										<path class="st3" d="M508.3,209.7c-0.9,1.6-2.5,3-4.2,3.5c-2.9,0.9-5.6-0.6-7.6-2.6c-4.2-4.1-4-10.7-1.6-15.6
											c2.9-5.9,8.3-10.2,11.7-15.9c1.6-2.6,2.7-5.6,3-8.6s-0.5-5.9-2.2-8.4c-1.5-2.2-3.8-4.4-4.2-7.1c-0.5-3.1,2.1-5.7,4.4-7.4
											c4.7-3.6,10.8-4.7,16.1-7.2c4.9-2.2,10.2-6.5,11-12.1c0.4-2.9-0.7-5.4-2.1-7.9c-1.3-2.3-3.3-4.9-2.6-7.7
											c0.4-1.9,2-3.3,3.5-4.4c1.8-1.3,3.7-2.3,5.7-3.2c1.3-0.6,2.6-1.1,3.9-1.6c0.9-0.3,1.7-0.6,2.6-0.6c1.7-0.1,3.4,0.1,5,0.6
											c1.5,0.4,3.1,1.1,4.1,2.4"/>
									</g>
								</g>
								<g>
									<g>
										<path class="st2" d="M473.2,129.2c2.5-1.7,5.3-3.1,8.1-4.2c2.6-1,5.2-1.7,7.9-2.5c2.4-0.7,4.7-1.4,6.8-2.7
											c2-1.2,3.9-2.7,5.4-4.5s2.7-3.8,3.6-6c0.8-2.1,1.4-4.3,0.2-6.3c-0.6-0.9-1.4-1.6-2.4-2c-1.1-0.5-2.3-0.3-3.5-0.2
											c-2.8,0.4-5.6,1.2-8.3,2.2c-5.4,2-10.4,4.9-15.1,8.2c-4.8,3.3-9.4,7-13.7,11.1c-2.1,2-4.4,4.1-6.2,6.4
											c-1.4,1.8-2.2,4-2.3,6.3c-0.3,4.3,1.5,8.6,0.6,12.8c-0.5,2.5-2.1,4.3-4.1,5.9c-2,1.7-4.3,3.1-6.4,4.8
											c-3.4,2.9-6.4,6.3-8.6,10.1c-2.3,4-3.9,8.3-5.3,12.6c-0.9,2.8-1.8,5.6-1.6,8.5c0.2,2.8,1.4,5.1,3.3,7.1
											c2.1,2.3,4.7,4.3,7,6.3c0.8,0.7,1.6,1.6,2.6,2.1c1.7,0.8,3.7,0.2,4.9-1.2c0.6-0.7,0.9-1.6,0.9-2.6c0-1.3-0.6-2.6-0.9-3.9
											c-0.7-2.9-1-6-0.1-9c1.2-4.1,4.6-6.8,8-9.1c3.3-2.2,6.9-4.1,9.6-7.1c1.3-1.4,2.4-3.1,3-5c0.7-2.1,0.7-4.4,0.4-6.7
											c-0.7-4.7-2.8-9.1-3.7-13.7c-0.5-2.3-0.6-4.6-0.1-6.9c0.6-2.5,2.1-4.6,3.9-6.3C469,132.1,471.1,130.6,473.2,129.2"/>
										<path class="st3" d="M463.6,151.8c1.3,4.3,3.2,8.8,2.6,13.3c-0.5,4.1-3.3,7-6.4,9.4c-3.2,2.3-6.7,4.2-9.7,6.7
											c-1.5,1.2-2.8,2.6-3.8,4.3c-1.3,2.2-1.9,4.7-1.8,7.3c0,1.4,0.2,2.9,0.5,4.2c0.1,0.7,0.3,1.4,0.5,2.1
											c0.2,0.7,0.5,1.3,0.5,2c0.2,1.9-1.4,3.5-3.3,3.4c-1.3,0-2.1-0.9-3-1.7c-1.1-1-2.2-1.9-3.3-2.9c-2.9-2.6-6.4-5.2-7-9.3
											c-0.4-2.9,0.4-5.8,1.3-8.6c0.7-2.3,1.5-4.5,2.4-6.7c1.6-3.9,3.6-7.7,6.3-11c1.4-1.7,3-3.3,4.7-4.8c2-1.7,4.1-3.1,6.1-4.7
											c1.9-1.5,3.7-3.2,4.6-5.5c0.8-1.9,0.8-3.9,0.6-5.9c-0.4-4.1-1.7-8.7,0.3-12.6c0.6-1.2,1.5-2.1,2.4-3.1
											c1-1.1,2-2.1,3.1-3.1c2.1-2.1,4.3-4.1,6.6-5.9c4.3-3.6,8.9-7,13.7-9.9c4.8-2.9,10-5.3,15.5-6.5c2.3-0.5,5.1-1.3,6.9,0.6
											c1.7,1.9,0.9,4.3,0.1,6.3c-1.7,4.3-5,7.9-9.1,10.1c-2.2,1.2-4.6,1.8-7,2.5c-2.5,0.7-5,1.5-7.5,2.5"/>
									</g>
								</g>
							</g>
							<g>
								<g>
									<path class="st2" d="M510.1,262.6c0.1-0.2,0.3-0.3,0.4-0.5"/>
									<path class="st2" d="M506.8,261.5c1,1.2,2.6,1.8,4.1,1.5c0.2,0,0.4-0.3,0.4-0.5c0.7-7.3-2.3-14.7-7.5-19.8
										c-1.6-1.4-3.3-2.6-5.1-3.6"/>
									<path class="st2" d="M498.7,239.1c-1.5-0.8-3.6-1.4-5.3-0.6c-2.3,1.2-1.3,4-0.5,5.8c1.7,4.5,4.4,8.6,7.7,12.1
										c1.9,2,4,3.8,6.3,5.3"/>
									<path class="st3" d="M494.9,246.5c-0.5-1-0.9-2-1.3-3s-1-2.4-0.4-3.4"/>
									<path class="st2" d="M506.6,261.5c0,0,0,0,0,0.1"/>
								</g>
							</g>
							<g>
								<g>
									<path class="st2" d="M520.3,144.8c-3.7,2-8,4.3-8.7,8.9c-0.4,2.5,0.6,4.8,2.6,6.3c2.3,1.9,5.4,2.8,8.3,3.4
										c3.3,0.7,6.7,1.1,10.1,1.2c1.5,0.1,3.1,0.1,4.7,0c1.3,0,2.7-0.1,4-0.3c2-0.4,4-1.5,4.6-3.7c0.6-2.1-0.2-4.4-1.2-6.2
										c-1.3-2.4-3.3-4.6-5.4-6.3c-4.6-3.7-10.9-6.3-16.8-4.3C521.7,144.1,521,144.4,520.3,144.8"/>
									<path class="st3" d="M536.8,147.6c2.3,1.5,4.3,3.4,5.9,5.6c1.2,1.7,2.3,3.7,2.4,5.8c0.1,5.1-6.7,4.6-10.1,4.6
										c-3.2,0-6.3-0.2-9.5-0.7c-2.9-0.5-6-1.1-8.6-2.5c-2-1-4-2.6-4.3-4.9c-0.6-3.7,2.5-6.6,5.4-8.4"/>
								</g>
							</g>
							<g>
								<g>
									<path class="st3" d="M529.4,155.7c-0.4,0.4-1,0.4-1.5,0.4c-0.9,0.1-1.8,0.2-2.7,0.2c-1.7,0.1-3.6,0.1-5.2-0.5
										c-0.6-0.2-1.1-0.6-1.3-1.2c-0.3-0.8,0-1.7,0.4-2.4c1.2-2.3,4.2-2.9,6.6-2.5"/>
									<path class="st2" d="M531,154.1c-0.3-2.5-2.1-4.5-4.5-5.2c-2.7-0.8-6.1-0.1-7.8,2.2c-1.2,1.6-1.6,4.1,0.3,5.3
										c1.7,1.1,4.1,1.1,6,1c1.2,0,2.4-0.1,3.6-0.3C530.1,156.8,531.2,155.6,531,154.1"/>
								</g>
							</g>
							<g>
								<g>
									<path class="st3" d="M522.6,305.8c0.5,1.5,0.3,3.3-0.3,4.8c-0.3,0.8-0.9,1.6-1.8,1.8c-0.9,0.2-1.8,0-2.7-0.3
										c-2.2-0.7-4.2-2.1-6.2-3.1c-3.2-1.7-6.7-2.7-10.2-3.6c-7-1.9-14.6-3.7-20.3-8.5"/>
									<path class="st2" d="M519.9,300.6c-5.5-4.8-12.2-7.6-18.8-10.5c-6.6-2.9-13.3-6-18.4-11.2s-8-11.9-10.6-18.6
										c-2.6-6.7-4.9-13.6-8.7-19.8c-0.9-1.4-1.8-3.1-3.3-4.1c-1.4-1-3.2-0.8-4.6,0.1c-3.6,2.5-2.4,7.1-1.2,10.6
										c3.1,8.4,6.6,16.6,10.5,24.7c2,4.1,4,8.1,6.1,12c2,3.8,4,7.8,6.8,11c5,5.9,12.5,8.3,19.6,10.3c4.1,1.2,8.4,2,12.2,3.8
										c2.2,1,4.2,2.4,6.4,3.4c1.7,0.8,4,1.5,5.7,0.3c0.9-0.7,1.4-1.8,1.7-2.9c0.4-1.7,0.5-3.4-0.2-5
										C522.6,303.2,521.3,301.8,519.9,300.6"/>
									<path class="st3" d="M467.9,275.9c-3.9-7.7-7.4-15.6-10.5-23.6c-0.8-2-1.6-4.1-2.3-6.1c-0.7-1.9-1.4-4.2-0.7-6.2
										c0.5-1.5,2-3.1,3.7-3.1c1.9,0,3,1.9,3.9,3.3c3.8,5.9,6.1,12.5,8.6,19c2.4,6.3,5,12.7,9.3,18.1s10.3,9,16.5,11.8
										c6.3,3,12.9,5.4,18.8,9.2"/>
								</g>
							</g>
						</g>
					</g>
				</g>
			</g>
		</g>
	</g>
</g>
</svg>
